<?xml version="1.0" encoding="UTF-8" standalone="no"?>
<!DOCTYPE svg PUBLIC "-//W3C//DTD SVG 1.1//EN"
 "http://www.w3.org/Graphics/SVG/1.1/DTD/svg11.dtd">
<!-- Generated by graphviz version 2.38.0 (20140413.2041)
 -->
<!-- Title: %3 Pages: 1 -->
<svg width="170pt" height="116pt"
 viewBox="0.00 0.00 169.50 116.00" xmlns="http://www.w3.org/2000/svg" xmlns:xlink="http://www.w3.org/1999/xlink">
<g id="graph0" class="graph" transform="scale(1 1) rotate(0) translate(4 112)">
<title>%3</title>
<polygon fill="white" stroke="none" points="-4,4 -4,-112 165.5,-112 165.5,4 -4,4"/>
<!-- //@nodes.0 -->
<g id="node1" class="node"><title>//@nodes.0</title>
<polygon fill="none" stroke="black" points="122.5,-108 48.5,-108 48.5,-72 122.5,-72 122.5,-108"/>
<text text-anchor="middle" x="85.5" y="-86.3" font-family="Times New Roman,serif" font-size="14.00">my_comp</text>
</g>
<!-- //@nodes.1 -->
<g id="node2" class="node"><title>//@nodes.1</title>
<polygon fill="none" stroke="black" points="81,-36 0,-36 0,-0 81,-0 81,-36"/>
<text text-anchor="middle" x="40.5" y="-14.3" font-family="Times New Roman,serif" font-size="14.00">my_display</text>
</g>
<!-- //@nodes.0&#45;&gt;//@nodes.1 -->
<g id="edge1" class="edge"><title>//@nodes.0&#45;&gt;//@nodes.1</title>
<path fill="none" stroke="black" d="M74.3764,-71.6966C69.145,-63.5589 62.8001,-53.689 57.0222,-44.7013"/>
<polygon fill="black" stroke="black" points="59.8474,-42.6235 51.4956,-36.1043 53.9591,-46.4088 59.8474,-42.6235"/>
</g>
<!-- //@nodes.2 -->
<g id="node3" class="node"><title>//@nodes.2</title>
<polygon fill="none" stroke="black" points="161.5,-36 99.5,-36 99.5,-0 161.5,-0 161.5,-36"/>
<text text-anchor="middle" x="130.5" y="-14.3" font-family="Times New Roman,serif" font-size="14.00">my_cpu</text>
</g>
<!-- //@nodes.0&#45;&gt;//@nodes.2 -->
<g id="edge2" class="edge"><title>//@nodes.0&#45;&gt;//@nodes.2</title>
<path fill="none" stroke="black" d="M96.6236,-71.6966C101.855,-63.5589 108.2,-53.689 113.978,-44.7013"/>
<polygon fill="black" stroke="black" points="117.041,-46.4088 119.504,-36.1043 111.153,-42.6235 117.041,-46.4088"/>
</g>
</g>
</svg>
