<?xml version="1.0" encoding="UTF-8" standalone="no"?>
<!DOCTYPE svg PUBLIC "-//W3C//DTD SVG 1.1//EN"
 "http://www.w3.org/Graphics/SVG/1.1/DTD/svg11.dtd">
<!-- Generated by graphviz version 4.0.0 (20220529.0937)
 -->
<!-- Pages: 1 -->
<svg width="1065pt" height="260pt"
 viewBox="0.00 0.00 1065.40 260.00" xmlns="http://www.w3.org/2000/svg" xmlns:xlink="http://www.w3.org/1999/xlink">
<g id="graph0" class="graph" transform="scale(1 1) rotate(0) translate(4 256)">
<polygon fill="white" stroke="transparent" points="-4,4 -4,-256 1061.4,-256 1061.4,4 -4,4"/>
<!-- //@nodes.0 -->
<g id="node1" class="node">
<title>//@nodes.0</title>
<polygon fill="none" stroke="black" points="331.5,-252 272.5,-252 272.5,-216 331.5,-216 331.5,-252"/>
<text text-anchor="middle" x="302" y="-230.3" font-family="Times New Roman,serif" font-size="14.00">Display</text>
</g>
<!-- //@nodes.17 -->
<g id="node2" class="node">
<title>//@nodes.17</title>
<polygon fill="none" stroke="black" points="174.5,-180 105.5,-180 105.5,-144 174.5,-144 174.5,-180"/>
<text text-anchor="middle" x="140" y="-158.3" font-family="Times New Roman,serif" font-size="14.00">32.0 Inch</text>
</g>
<!-- //@nodes.0&#45;&gt;//@nodes.17 -->
<g id="edge1" class="edge">
<title>//@nodes.0&#45;&gt;//@nodes.17</title>
<path fill="none" stroke="black" d="M272.29,-220.16C247.5,-209.45 211.84,-194.04 183.78,-181.92"/>
<polygon fill="black" stroke="black" points="185.15,-178.7 174.59,-177.94 182.38,-185.12 185.15,-178.7"/>
</g>
<!-- //@nodes.18 -->
<g id="node3" class="node">
<title>//@nodes.18</title>
<polygon fill="none" stroke="black" points="336.5,-180 267.5,-180 267.5,-144 336.5,-144 336.5,-180"/>
<text text-anchor="middle" x="302" y="-158.3" font-family="Times New Roman,serif" font-size="14.00">24.0 Inch</text>
</g>
<!-- //@nodes.0&#45;&gt;//@nodes.18 -->
<g id="edge2" class="edge">
<title>//@nodes.0&#45;&gt;//@nodes.18</title>
<path fill="none" stroke="black" d="M302,-215.7C302,-207.98 302,-198.71 302,-190.11"/>
<polygon fill="black" stroke="black" points="305.5,-190.1 302,-180.1 298.5,-190.1 305.5,-190.1"/>
</g>
<!-- //@nodes.19 -->
<g id="node4" class="node">
<title>//@nodes.19</title>
<polygon fill="none" stroke="black" points="423.5,-180 354.5,-180 354.5,-144 423.5,-144 423.5,-180"/>
<text text-anchor="middle" x="389" y="-158.3" font-family="Times New Roman,serif" font-size="14.00">27.0 Inch</text>
</g>
<!-- //@nodes.0&#45;&gt;//@nodes.19 -->
<g id="edge3" class="edge">
<title>//@nodes.0&#45;&gt;//@nodes.19</title>
<path fill="none" stroke="black" d="M323.51,-215.7C334.46,-206.88 347.95,-196.03 359.82,-186.47"/>
<polygon fill="black" stroke="black" points="362.14,-189.1 367.74,-180.1 357.76,-183.65 362.14,-189.1"/>
</g>
<!-- //@nodes.27 -->
<g id="node21" class="node">
<title>//@nodes.27</title>
<polygon fill="none" stroke="black" points="171.5,-108 108.5,-108 108.5,-72 171.5,-72 171.5,-108"/>
<text text-anchor="middle" x="140" y="-86.3" font-family="Times New Roman,serif" font-size="14.00">display2</text>
</g>
<!-- //@nodes.17&#45;&gt;//@nodes.27 -->
<g id="edge19" class="edge">
<title>//@nodes.17&#45;&gt;//@nodes.27</title>
<path fill="none" stroke="black" d="M140,-143.7C140,-135.98 140,-126.71 140,-118.11"/>
<polygon fill="black" stroke="black" points="143.5,-118.1 140,-108.1 136.5,-118.1 143.5,-118.1"/>
</g>
<!-- //@nodes.21 -->
<g id="node22" class="node">
<title>//@nodes.21</title>
<polygon fill="none" stroke="black" points="252.5,-108 189.5,-108 189.5,-72 252.5,-72 252.5,-108"/>
<text text-anchor="middle" x="221" y="-86.3" font-family="Times New Roman,serif" font-size="14.00">display1</text>
</g>
<!-- //@nodes.18&#45;&gt;//@nodes.21 -->
<g id="edge20" class="edge">
<title>//@nodes.18&#45;&gt;//@nodes.21</title>
<path fill="none" stroke="black" d="M281.98,-143.7C271.87,-134.97 259.46,-124.24 248.48,-114.75"/>
<polygon fill="black" stroke="black" points="250.65,-111.99 240.79,-108.1 246.07,-117.29 250.65,-111.99"/>
</g>
<!-- //@nodes.23 -->
<g id="node23" class="node">
<title>//@nodes.23</title>
<polygon fill="none" stroke="black" points="610,-108 540,-108 540,-72 610,-72 610,-108"/>
<text text-anchor="middle" x="575" y="-86.3" font-family="Times New Roman,serif" font-size="14.00">2display1</text>
</g>
<!-- //@nodes.18&#45;&gt;//@nodes.23 -->
<g id="edge21" class="edge">
<title>//@nodes.18&#45;&gt;//@nodes.23</title>
<path fill="none" stroke="black" d="M336.91,-147C339.96,-145.93 343.03,-144.91 346,-144 408.74,-124.73 483.04,-108.75 529.6,-99.54"/>
<polygon fill="black" stroke="black" points="530.53,-102.92 539.67,-97.56 529.19,-96.05 530.53,-102.92"/>
</g>
<!-- //@nodes.25 -->
<g id="node24" class="node">
<title>//@nodes.25</title>
<polygon fill="none" stroke="black" points="698,-108 628,-108 628,-72 698,-72 698,-108"/>
<text text-anchor="middle" x="663" y="-86.3" font-family="Times New Roman,serif" font-size="14.00">2display2</text>
</g>
<!-- //@nodes.19&#45;&gt;//@nodes.25 -->
<g id="edge22" class="edge">
<title>//@nodes.19&#45;&gt;//@nodes.25</title>
<path fill="none" stroke="black" d="M423.87,-146.88C426.94,-145.84 430.01,-144.86 433,-144 510.92,-121.6 536.21,-130.53 617.94,-108.03"/>
<polygon fill="black" stroke="black" points="618.97,-111.37 627.64,-105.28 617.07,-104.63 618.97,-111.37"/>
</g>
<!-- //@nodes.1 -->
<g id="node5" class="node">
<title>//@nodes.1</title>
<polygon fill="none" stroke="black" points="583,-252 529,-252 529,-216 583,-216 583,-252"/>
<text text-anchor="middle" x="556" y="-230.3" font-family="Times New Roman,serif" font-size="14.00">CPU</text>
</g>
<!-- //@nodes.2 -->
<g id="node6" class="node">
<title>//@nodes.2</title>
<polygon fill="none" stroke="black" points="777,-180 713,-180 713,-144 777,-144 777,-180"/>
<text text-anchor="middle" x="745" y="-158.3" font-family="Times New Roman,serif" font-size="14.00">4.6 GHz</text>
</g>
<!-- //@nodes.1&#45;&gt;//@nodes.2 -->
<g id="edge4" class="edge">
<title>//@nodes.1&#45;&gt;//@nodes.2</title>
<path fill="none" stroke="black" d="M583.26,-223.36C612.65,-212.91 660.77,-195.63 702,-180 702.43,-179.84 702.87,-179.67 703.3,-179.51"/>
<polygon fill="black" stroke="black" points="704.56,-182.77 712.64,-175.91 702.05,-176.24 704.56,-182.77"/>
</g>
<!-- //@nodes.3 -->
<g id="node7" class="node">
<title>//@nodes.3</title>
<polygon fill="none" stroke="black" points="588,-180 524,-180 524,-144 588,-144 588,-180"/>
<text text-anchor="middle" x="556" y="-158.3" font-family="Times New Roman,serif" font-size="14.00">3.6 GHz</text>
</g>
<!-- //@nodes.1&#45;&gt;//@nodes.3 -->
<g id="edge5" class="edge">
<title>//@nodes.1&#45;&gt;//@nodes.3</title>
<path fill="none" stroke="black" d="M556,-215.7C556,-207.98 556,-198.71 556,-190.11"/>
<polygon fill="black" stroke="black" points="559.5,-190.1 556,-180.1 552.5,-190.1 559.5,-190.1"/>
</g>
<!-- //@nodes.4 -->
<g id="node8" class="node">
<title>//@nodes.4</title>
<polygon fill="none" stroke="black" points="506,-180 442,-180 442,-144 506,-144 506,-180"/>
<text text-anchor="middle" x="474" y="-158.3" font-family="Times New Roman,serif" font-size="14.00">4.3 GHz</text>
</g>
<!-- //@nodes.1&#45;&gt;//@nodes.4 -->
<g id="edge6" class="edge">
<title>//@nodes.1&#45;&gt;//@nodes.4</title>
<path fill="none" stroke="black" d="M535.73,-215.7C525.5,-206.97 512.94,-196.24 501.82,-186.75"/>
<polygon fill="black" stroke="black" points="503.91,-183.94 494.04,-180.1 499.37,-189.26 503.91,-183.94"/>
</g>
<!-- //@nodes.10 -->
<g id="node9" class="node">
<title>//@nodes.10</title>
<polygon fill="none" stroke="black" points="772,-108 718,-108 718,-72 772,-72 772,-108"/>
<text text-anchor="middle" x="745" y="-86.3" font-family="Times New Roman,serif" font-size="14.00">2cpu1</text>
</g>
<!-- //@nodes.2&#45;&gt;//@nodes.10 -->
<g id="edge7" class="edge">
<title>//@nodes.2&#45;&gt;//@nodes.10</title>
<path fill="none" stroke="black" d="M745,-143.7C745,-135.98 745,-126.71 745,-118.11"/>
<polygon fill="black" stroke="black" points="748.5,-118.1 745,-108.1 741.5,-118.1 748.5,-118.1"/>
</g>
<!-- //@nodes.16 -->
<g id="node10" class="node">
<title>//@nodes.16</title>
<polygon fill="none" stroke="black" points="900,-108 846,-108 846,-72 900,-72 900,-108"/>
<text text-anchor="middle" x="873" y="-86.3" font-family="Times New Roman,serif" font-size="14.00">2cpu2</text>
</g>
<!-- //@nodes.2&#45;&gt;//@nodes.16 -->
<g id="edge8" class="edge">
<title>//@nodes.2&#45;&gt;//@nodes.16</title>
<path fill="none" stroke="black" d="M776.31,-143.88C794.63,-133.86 817.83,-121.17 836.92,-110.73"/>
<polygon fill="black" stroke="black" points="838.82,-113.68 845.91,-105.81 835.46,-107.54 838.82,-113.68"/>
</g>
<!-- //@nodes.13 -->
<g id="node11" class="node">
<title>//@nodes.13</title>
<polygon fill="none" stroke="black" points="464,-108 410,-108 410,-72 464,-72 464,-108"/>
<text text-anchor="middle" x="437" y="-86.3" font-family="Times New Roman,serif" font-size="14.00">cpu1</text>
</g>
<!-- //@nodes.3&#45;&gt;//@nodes.13 -->
<g id="edge9" class="edge">
<title>//@nodes.3&#45;&gt;//@nodes.13</title>
<path fill="none" stroke="black" d="M526.89,-143.88C510.6,-134.29 490.16,-122.27 472.88,-112.11"/>
<polygon fill="black" stroke="black" points="474.57,-109.04 464.18,-106.99 471.02,-115.07 474.57,-109.04"/>
</g>
<!-- //@nodes.7 -->
<g id="node12" class="node">
<title>//@nodes.7</title>
<polygon fill="none" stroke="black" points="325,-108 271,-108 271,-72 325,-72 325,-108"/>
<text text-anchor="middle" x="298" y="-86.3" font-family="Times New Roman,serif" font-size="14.00">cpu2</text>
</g>
<!-- //@nodes.4&#45;&gt;//@nodes.7 -->
<g id="edge10" class="edge">
<title>//@nodes.4&#45;&gt;//@nodes.7</title>
<path fill="none" stroke="black" d="M441.79,-147.58C438.82,-146.36 435.86,-145.15 433,-144 399.83,-130.61 361.9,-115.76 334.71,-105.2"/>
<polygon fill="black" stroke="black" points="335.8,-101.86 325.21,-101.51 333.27,-108.39 335.8,-101.86"/>
</g>
<!-- //@nodes.8 -->
<g id="node15" class="node">
<title>//@nodes.8</title>
<ellipse fill="none" stroke="black" cx="745" cy="-18" rx="37.89" ry="18"/>
<text text-anchor="middle" x="745" y="-14.3" font-family="Times New Roman,serif" font-size="14.00">6 cores</text>
</g>
<!-- //@nodes.10&#45;&gt;//@nodes.8 -->
<g id="edge14" class="edge">
<title>//@nodes.10&#45;&gt;//@nodes.8</title>
<path fill="none" stroke="black" stroke-dasharray="5,2" d="M745,-71.7C745,-63.98 745,-54.71 745,-46.11"/>
<polygon fill="black" stroke="black" points="748.5,-46.1 745,-36.1 741.5,-46.1 748.5,-46.1"/>
</g>
<!-- //@nodes.9 -->
<g id="node16" class="node">
<title>//@nodes.9</title>
<ellipse fill="none" stroke="black" cx="837" cy="-18" rx="36.29" ry="18"/>
<text text-anchor="middle" x="837" y="-14.3" font-family="Times New Roman,serif" font-size="14.00">64 KiB</text>
</g>
<!-- //@nodes.10&#45;&gt;//@nodes.9 -->
<g id="edge13" class="edge">
<title>//@nodes.10&#45;&gt;//@nodes.9</title>
<path fill="none" stroke="black" stroke-dasharray="5,2" d="M767.74,-71.7C780.52,-61.97 796.55,-49.78 809.97,-39.57"/>
<polygon fill="black" stroke="black" points="812.09,-42.35 817.93,-33.51 807.85,-36.78 812.09,-42.35"/>
</g>
<!-- //@nodes.14 -->
<g id="node19" class="node">
<title>//@nodes.14</title>
<ellipse fill="none" stroke="black" cx="929" cy="-18" rx="37.89" ry="18"/>
<text text-anchor="middle" x="929" y="-14.3" font-family="Times New Roman,serif" font-size="14.00">4 cores</text>
</g>
<!-- //@nodes.16&#45;&gt;//@nodes.14 -->
<g id="edge18" class="edge">
<title>//@nodes.16&#45;&gt;//@nodes.14</title>
<path fill="none" stroke="black" stroke-dasharray="5,2" d="M886.84,-71.7C893.76,-63.05 902.23,-52.46 909.77,-43.04"/>
<polygon fill="black" stroke="black" points="912.57,-45.14 916.08,-35.14 907.1,-40.77 912.57,-45.14"/>
</g>
<!-- //@nodes.15 -->
<g id="node20" class="node">
<title>//@nodes.15</title>
<ellipse fill="none" stroke="black" cx="1021" cy="-18" rx="36.29" ry="18"/>
<text text-anchor="middle" x="1021" y="-14.3" font-family="Times New Roman,serif" font-size="14.00">32 KiB</text>
</g>
<!-- //@nodes.16&#45;&gt;//@nodes.15 -->
<g id="edge17" class="edge">
<title>//@nodes.16&#45;&gt;//@nodes.15</title>
<path fill="none" stroke="black" stroke-dasharray="5,2" d="M900.15,-76.16C924.37,-64.7 959.99,-47.86 986.28,-35.42"/>
<polygon fill="black" stroke="black" points="987.97,-38.5 995.51,-31.06 984.97,-32.17 987.97,-38.5"/>
</g>
<!-- //@nodes.11 -->
<g id="node17" class="node">
<title>//@nodes.11</title>
<ellipse fill="none" stroke="black" cx="391" cy="-18" rx="37.89" ry="18"/>
<text text-anchor="middle" x="391" y="-14.3" font-family="Times New Roman,serif" font-size="14.00">4 cores</text>
</g>
<!-- //@nodes.13&#45;&gt;//@nodes.11 -->
<g id="edge16" class="edge">
<title>//@nodes.13&#45;&gt;//@nodes.11</title>
<path fill="none" stroke="black" stroke-dasharray="5,2" d="M425.63,-71.7C420.15,-63.35 413.46,-53.18 407.44,-44.02"/>
<polygon fill="black" stroke="black" points="410.34,-42.06 401.92,-35.62 404.49,-45.9 410.34,-42.06"/>
</g>
<!-- //@nodes.12 -->
<g id="node18" class="node">
<title>//@nodes.12</title>
<ellipse fill="none" stroke="black" cx="483" cy="-18" rx="36.29" ry="18"/>
<text text-anchor="middle" x="483" y="-14.3" font-family="Times New Roman,serif" font-size="14.00">64 KiB</text>
</g>
<!-- //@nodes.13&#45;&gt;//@nodes.12 -->
<g id="edge15" class="edge">
<title>//@nodes.13&#45;&gt;//@nodes.12</title>
<path fill="none" stroke="black" stroke-dasharray="5,2" d="M448.37,-71.7C453.85,-63.35 460.54,-53.18 466.56,-44.02"/>
<polygon fill="black" stroke="black" points="469.51,-45.9 472.08,-35.62 463.66,-42.06 469.51,-45.9"/>
</g>
<!-- //@nodes.5 -->
<g id="node13" class="node">
<title>//@nodes.5</title>
<ellipse fill="none" stroke="black" cx="298" cy="-18" rx="37.89" ry="18"/>
<text text-anchor="middle" x="298" y="-14.3" font-family="Times New Roman,serif" font-size="14.00">4 cores</text>
</g>
<!-- //@nodes.7&#45;&gt;//@nodes.5 -->
<g id="edge12" class="edge">
<title>//@nodes.7&#45;&gt;//@nodes.5</title>
<path fill="none" stroke="black" stroke-dasharray="5,2" d="M298,-71.7C298,-63.98 298,-54.71 298,-46.11"/>
<polygon fill="black" stroke="black" points="301.5,-46.1 298,-36.1 294.5,-46.1 301.5,-46.1"/>
</g>
<!-- //@nodes.6 -->
<g id="node14" class="node">
<title>//@nodes.6</title>
<ellipse fill="none" stroke="black" cx="206" cy="-18" rx="36.29" ry="18"/>
<text text-anchor="middle" x="206" y="-14.3" font-family="Times New Roman,serif" font-size="14.00">48 KiB</text>
</g>
<!-- //@nodes.7&#45;&gt;//@nodes.6 -->
<g id="edge11" class="edge">
<title>//@nodes.7&#45;&gt;//@nodes.6</title>
<path fill="none" stroke="black" stroke-dasharray="5,2" d="M275.26,-71.7C262.48,-61.97 246.45,-49.78 233.03,-39.57"/>
<polygon fill="black" stroke="black" points="235.15,-36.78 225.07,-33.51 230.91,-42.35 235.15,-36.78"/>
</g>
<!-- //@nodes.26 -->
<g id="node28" class="node">
<title>//@nodes.26</title>
<ellipse fill="none" stroke="black" cx="27" cy="-18" rx="27" ry="18"/>
<text text-anchor="middle" x="27" y="-14.3" font-family="Times New Roman,serif" font-size="14.00">4K</text>
</g>
<!-- //@nodes.27&#45;&gt;//@nodes.26 -->
<g id="edge26" class="edge">
<title>//@nodes.27&#45;&gt;//@nodes.26</title>
<path fill="none" stroke="black" stroke-dasharray="5,2" d="M112.36,-71.88C94.89,-61.05 72.38,-47.11 54.87,-36.26"/>
<polygon fill="black" stroke="black" points="56.56,-33.2 46.22,-30.9 52.88,-39.15 56.56,-33.2"/>
</g>
<!-- //@nodes.20 -->
<g id="node25" class="node">
<title>//@nodes.20</title>
<ellipse fill="none" stroke="black" cx="112" cy="-18" rx="39.79" ry="18"/>
<text text-anchor="middle" x="112" y="-14.3" font-family="Times New Roman,serif" font-size="14.00">Full HD</text>
</g>
<!-- //@nodes.21&#45;&gt;//@nodes.20 -->
<g id="edge23" class="edge">
<title>//@nodes.21&#45;&gt;//@nodes.20</title>
<path fill="none" stroke="black" stroke-dasharray="5,2" d="M194.34,-71.88C178.7,-61.84 158.89,-49.11 142.62,-38.66"/>
<polygon fill="black" stroke="black" points="144.3,-35.58 133.99,-33.12 140.51,-41.47 144.3,-35.58"/>
</g>
<!-- //@nodes.22 -->
<g id="node26" class="node">
<title>//@nodes.22</title>
<ellipse fill="none" stroke="black" cx="577" cy="-18" rx="39.79" ry="18"/>
<text text-anchor="middle" x="577" y="-14.3" font-family="Times New Roman,serif" font-size="14.00">Full HD</text>
</g>
<!-- //@nodes.23&#45;&gt;//@nodes.22 -->
<g id="edge24" class="edge">
<title>//@nodes.23&#45;&gt;//@nodes.22</title>
<path fill="none" stroke="black" stroke-dasharray="5,2" d="M575.49,-71.7C575.71,-63.98 575.98,-54.71 576.23,-46.11"/>
<polygon fill="black" stroke="black" points="579.72,-46.2 576.51,-36.1 572.73,-46 579.72,-46.2"/>
</g>
<!-- //@nodes.24 -->
<g id="node27" class="node">
<title>//@nodes.24</title>
<ellipse fill="none" stroke="black" cx="662" cy="-18" rx="27" ry="18"/>
<text text-anchor="middle" x="662" y="-14.3" font-family="Times New Roman,serif" font-size="14.00">HD</text>
</g>
<!-- //@nodes.25&#45;&gt;//@nodes.24 -->
<g id="edge25" class="edge">
<title>//@nodes.25&#45;&gt;//@nodes.24</title>
<path fill="none" stroke="black" stroke-dasharray="5,2" d="M662.75,-71.7C662.64,-63.98 662.51,-54.71 662.39,-46.11"/>
<polygon fill="black" stroke="black" points="665.89,-46.05 662.24,-36.1 658.89,-46.15 665.89,-46.05"/>
</g>
<!-- //@nodes.28 -->
<g id="node29" class="node">
<title>//@nodes.28</title>
<polygon fill="none" stroke="black" points="693,-180 637,-180 637,-144 693,-144 693,-180"/>
<text text-anchor="middle" x="665" y="-158.3" font-family="Times New Roman,serif" font-size="14.00">comp2</text>
</g>
<!-- //@nodes.28&#45;&gt;//@nodes.10 -->
<g id="edge29" class="edge">
<title>//@nodes.28&#45;&gt;//@nodes.10</title>
<path fill="none" stroke="black" d="M684.78,-143.7C694.75,-134.97 707.01,-124.24 717.86,-114.75"/>
<polygon fill="black" stroke="black" points="720.23,-117.32 725.45,-108.1 715.62,-112.06 720.23,-117.32"/>
</g>
<!-- //@nodes.28&#45;&gt;//@nodes.16 -->
<g id="edge30" class="edge">
<title>//@nodes.28&#45;&gt;//@nodes.16</title>
<path fill="none" stroke="black" d="M693.4,-148.2C696.94,-146.73 700.54,-145.29 704,-144 748.83,-127.25 801.62,-111.28 836.11,-101.33"/>
<polygon fill="black" stroke="black" points="837.12,-104.68 845.77,-98.56 835.19,-97.95 837.12,-104.68"/>
</g>
<!-- //@nodes.28&#45;&gt;//@nodes.23 -->
<g id="edge27" class="edge">
<title>//@nodes.28&#45;&gt;//@nodes.23</title>
<path fill="none" stroke="black" d="M642.75,-143.7C631.42,-134.88 617.47,-124.03 605.18,-114.47"/>
<polygon fill="black" stroke="black" points="607.03,-111.48 596.99,-108.1 602.74,-117.01 607.03,-111.48"/>
</g>
<!-- //@nodes.28&#45;&gt;//@nodes.25 -->
<g id="edge28" class="edge">
<title>//@nodes.28&#45;&gt;//@nodes.25</title>
<path fill="none" stroke="black" d="M664.51,-143.7C664.29,-135.98 664.02,-126.71 663.77,-118.11"/>
<polygon fill="black" stroke="black" points="667.27,-118 663.49,-108.1 660.28,-118.2 667.27,-118"/>
</g>
<!-- //@nodes.29 -->
<g id="node30" class="node">
<title>//@nodes.29</title>
<polygon fill="none" stroke="black" points="249,-180 193,-180 193,-144 249,-144 249,-180"/>
<text text-anchor="middle" x="221" y="-158.3" font-family="Times New Roman,serif" font-size="14.00">comp1</text>
</g>
<!-- //@nodes.29&#45;&gt;//@nodes.13 -->
<g id="edge34" class="edge">
<title>//@nodes.29&#45;&gt;//@nodes.13</title>
<path fill="none" stroke="black" d="M249.05,-147.96C252.38,-146.56 255.75,-145.21 259,-144 306.95,-126.22 363.8,-110.13 400.12,-100.46"/>
<polygon fill="black" stroke="black" points="401.02,-103.84 409.8,-97.91 399.24,-97.07 401.02,-103.84"/>
</g>
<!-- //@nodes.29&#45;&gt;//@nodes.7 -->
<g id="edge33" class="edge">
<title>//@nodes.29&#45;&gt;//@nodes.7</title>
<path fill="none" stroke="black" d="M240.03,-143.7C249.54,-135.05 261.21,-124.45 271.57,-115.03"/>
<polygon fill="black" stroke="black" points="274.14,-117.42 279.19,-108.1 269.43,-112.24 274.14,-117.42"/>
</g>
<!-- //@nodes.29&#45;&gt;//@nodes.27 -->
<g id="edge32" class="edge">
<title>//@nodes.29&#45;&gt;//@nodes.27</title>
<path fill="none" stroke="black" d="M200.98,-143.7C190.87,-134.97 178.46,-124.24 167.48,-114.75"/>
<polygon fill="black" stroke="black" points="169.65,-111.99 159.79,-108.1 165.07,-117.29 169.65,-111.99"/>
</g>
<!-- //@nodes.29&#45;&gt;//@nodes.21 -->
<g id="edge31" class="edge">
<title>//@nodes.29&#45;&gt;//@nodes.21</title>
<path fill="none" stroke="black" d="M221,-143.7C221,-135.98 221,-126.71 221,-118.11"/>
<polygon fill="black" stroke="black" points="224.5,-118.1 221,-108.1 217.5,-118.1 224.5,-118.1"/>
</g>
</g>
</svg>
