<?xml version="1.0" encoding="UTF-8" standalone="no"?>
<!DOCTYPE svg PUBLIC "-//W3C//DTD SVG 1.1//EN"
 "http://www.w3.org/Graphics/SVG/1.1/DTD/svg11.dtd">
<!-- Generated by graphviz version 4.0.0 (20220529.0937)
 -->
<!-- Pages: 1 -->
<svg width="568pt" height="260pt"
 viewBox="0.00 0.00 568.44 260.00" xmlns="http://www.w3.org/2000/svg" xmlns:xlink="http://www.w3.org/1999/xlink">
<g id="graph0" class="graph" transform="scale(1 1) rotate(0) translate(4 256)">
<polygon fill="white" stroke="transparent" points="-4,4 -4,-256 564.44,-256 564.44,4 -4,4"/>
<!-- //@nodes.0 -->
<g id="node1" class="node">
<title>//@nodes.0</title>
<polygon fill="none" stroke="black" points="117.55,-252 58.55,-252 58.55,-216 117.55,-216 117.55,-252"/>
<text text-anchor="middle" x="88.05" y="-230.3" font-family="Times New Roman,serif" font-size="14.00">Display</text>
</g>
<!-- //@nodes.10 -->
<g id="node2" class="node">
<title>//@nodes.10</title>
<polygon fill="none" stroke="black" points="165.55,-180 96.55,-180 96.55,-144 165.55,-144 165.55,-180"/>
<text text-anchor="middle" x="131.05" y="-158.3" font-family="Times New Roman,serif" font-size="14.00">20.0 Inch</text>
</g>
<!-- //@nodes.0&#45;&gt;//@nodes.10 -->
<g id="edge1" class="edge">
<title>//@nodes.0&#45;&gt;//@nodes.10</title>
<path fill="none" stroke="black" d="M98.68,-215.7C103.67,-207.56 109.74,-197.69 115.26,-188.7"/>
<polygon fill="black" stroke="black" points="118.29,-190.46 120.54,-180.1 112.32,-186.79 118.29,-190.46"/>
</g>
<!-- //@nodes.11 -->
<g id="node3" class="node">
<title>//@nodes.11</title>
<polygon fill="none" stroke="black" points="76.55,-180 7.55,-180 7.55,-144 76.55,-144 76.55,-180"/>
<text text-anchor="middle" x="42.05" y="-158.3" font-family="Times New Roman,serif" font-size="14.00">34.0 Inch</text>
</g>
<!-- //@nodes.0&#45;&gt;//@nodes.11 -->
<g id="edge2" class="edge">
<title>//@nodes.0&#45;&gt;//@nodes.11</title>
<path fill="none" stroke="black" d="M76.68,-215.7C71.33,-207.56 64.84,-197.69 58.94,-188.7"/>
<polygon fill="black" stroke="black" points="61.7,-186.54 53.29,-180.1 55.85,-190.38 61.7,-186.54"/>
</g>
<!-- //@nodes.15 -->
<g id="node13" class="node">
<title>//@nodes.15</title>
<polygon fill="none" stroke="black" points="173.55,-108 92.55,-108 92.55,-72 173.55,-72 173.55,-108"/>
<text text-anchor="middle" x="133.05" y="-86.3" font-family="Times New Roman,serif" font-size="14.00">my_display</text>
</g>
<!-- //@nodes.10&#45;&gt;//@nodes.15 -->
<g id="edge11" class="edge">
<title>//@nodes.10&#45;&gt;//@nodes.15</title>
<path fill="none" stroke="black" d="M131.54,-143.7C131.76,-135.98 132.03,-126.71 132.27,-118.11"/>
<polygon fill="black" stroke="black" points="135.77,-118.2 132.56,-108.1 128.77,-118 135.77,-118.2"/>
</g>
<!-- //@nodes.13 -->
<g id="node14" class="node">
<title>//@nodes.13</title>
<polygon fill="none" stroke="black" points="74.05,-108 2.05,-108 2.05,-72 74.05,-72 74.05,-108"/>
<text text-anchor="middle" x="38.05" y="-86.3" font-family="Times New Roman,serif" font-size="14.00">my_disp2</text>
</g>
<!-- //@nodes.11&#45;&gt;//@nodes.13 -->
<g id="edge12" class="edge">
<title>//@nodes.11&#45;&gt;//@nodes.13</title>
<path fill="none" stroke="black" d="M41.06,-143.7C40.62,-135.98 40.09,-126.71 39.6,-118.11"/>
<polygon fill="black" stroke="black" points="43.09,-117.89 39.02,-108.1 36.1,-118.29 43.09,-117.89"/>
</g>
<!-- //@nodes.1 -->
<g id="node4" class="node">
<title>//@nodes.1</title>
<polygon fill="none" stroke="black" points="414.05,-252 360.05,-252 360.05,-216 414.05,-216 414.05,-252"/>
<text text-anchor="middle" x="387.05" y="-230.3" font-family="Times New Roman,serif" font-size="14.00">CPU</text>
</g>
<!-- //@nodes.2 -->
<g id="node5" class="node">
<title>//@nodes.2</title>
<polygon fill="none" stroke="black" points="462.05,-180 398.05,-180 398.05,-144 462.05,-144 462.05,-180"/>
<text text-anchor="middle" x="430.05" y="-158.3" font-family="Times New Roman,serif" font-size="14.00">4.6 GHz</text>
</g>
<!-- //@nodes.1&#45;&gt;//@nodes.2 -->
<g id="edge3" class="edge">
<title>//@nodes.1&#45;&gt;//@nodes.2</title>
<path fill="none" stroke="black" d="M397.68,-215.7C402.67,-207.56 408.74,-197.69 414.26,-188.7"/>
<polygon fill="black" stroke="black" points="417.29,-190.46 419.54,-180.1 411.32,-186.79 417.29,-190.46"/>
</g>
<!-- //@nodes.3 -->
<g id="node6" class="node">
<title>//@nodes.3</title>
<polygon fill="none" stroke="black" points="377.05,-180 313.05,-180 313.05,-144 377.05,-144 377.05,-180"/>
<text text-anchor="middle" x="345.05" y="-158.3" font-family="Times New Roman,serif" font-size="14.00">4.9 GHz</text>
</g>
<!-- //@nodes.1&#45;&gt;//@nodes.3 -->
<g id="edge4" class="edge">
<title>//@nodes.1&#45;&gt;//@nodes.3</title>
<path fill="none" stroke="black" d="M376.66,-215.7C371.78,-207.56 365.86,-197.69 360.47,-188.7"/>
<polygon fill="black" stroke="black" points="363.46,-186.88 355.31,-180.1 357.45,-190.48 363.46,-186.88"/>
</g>
<!-- //@nodes.9 -->
<g id="node7" class="node">
<title>//@nodes.9</title>
<polygon fill="none" stroke="black" points="462.05,-108 400.05,-108 400.05,-72 462.05,-72 462.05,-108"/>
<text text-anchor="middle" x="431.05" y="-86.3" font-family="Times New Roman,serif" font-size="14.00">my_cpu</text>
</g>
<!-- //@nodes.2&#45;&gt;//@nodes.9 -->
<g id="edge5" class="edge">
<title>//@nodes.2&#45;&gt;//@nodes.9</title>
<path fill="none" stroke="black" d="M430.29,-143.7C430.4,-135.98 430.54,-126.71 430.66,-118.11"/>
<polygon fill="black" stroke="black" points="434.16,-118.15 430.8,-108.1 427.16,-118.05 434.16,-118.15"/>
</g>
<!-- //@nodes.6 -->
<g id="node8" class="node">
<title>//@nodes.6</title>
<polygon fill="none" stroke="black" points="314.55,-108 245.55,-108 245.55,-72 314.55,-72 314.55,-108"/>
<text text-anchor="middle" x="280.05" y="-86.3" font-family="Times New Roman,serif" font-size="14.00">my_cpu2</text>
</g>
<!-- //@nodes.3&#45;&gt;//@nodes.6 -->
<g id="edge6" class="edge">
<title>//@nodes.3&#45;&gt;//@nodes.6</title>
<path fill="none" stroke="black" d="M328.98,-143.7C321.11,-135.22 311.49,-124.86 302.87,-115.58"/>
<polygon fill="black" stroke="black" points="305.3,-113.05 295.93,-108.1 300.17,-117.81 305.3,-113.05"/>
</g>
<!-- //@nodes.7 -->
<g id="node11" class="node">
<title>//@nodes.7</title>
<ellipse fill="none" stroke="black" cx="432.05" cy="-18" rx="37.89" ry="18"/>
<text text-anchor="middle" x="432.05" y="-14.3" font-family="Times New Roman,serif" font-size="14.00">4 cores</text>
</g>
<!-- //@nodes.9&#45;&gt;//@nodes.7 -->
<g id="edge10" class="edge">
<title>//@nodes.9&#45;&gt;//@nodes.7</title>
<path fill="none" stroke="black" stroke-dasharray="5,2" d="M431.29,-71.7C431.4,-63.98 431.54,-54.71 431.66,-46.11"/>
<polygon fill="black" stroke="black" points="435.16,-46.15 431.8,-36.1 428.16,-46.05 435.16,-46.15"/>
</g>
<!-- //@nodes.8 -->
<g id="node12" class="node">
<title>//@nodes.8</title>
<ellipse fill="none" stroke="black" cx="524.05" cy="-18" rx="36.29" ry="18"/>
<text text-anchor="middle" x="524.05" y="-14.3" font-family="Times New Roman,serif" font-size="14.00">64 KiB</text>
</g>
<!-- //@nodes.9&#45;&gt;//@nodes.8 -->
<g id="edge9" class="edge">
<title>//@nodes.9&#45;&gt;//@nodes.8</title>
<path fill="none" stroke="black" stroke-dasharray="5,2" d="M454.04,-71.7C466.95,-61.97 483.16,-49.78 496.72,-39.57"/>
<polygon fill="black" stroke="black" points="498.89,-42.32 504.77,-33.51 494.68,-36.73 498.89,-42.32"/>
</g>
<!-- //@nodes.4 -->
<g id="node9" class="node">
<title>//@nodes.4</title>
<ellipse fill="none" stroke="black" cx="202.05" cy="-18" rx="37.89" ry="18"/>
<text text-anchor="middle" x="202.05" y="-14.3" font-family="Times New Roman,serif" font-size="14.00">6 cores</text>
</g>
<!-- //@nodes.6&#45;&gt;//@nodes.4 -->
<g id="edge8" class="edge">
<title>//@nodes.6&#45;&gt;//@nodes.4</title>
<path fill="none" stroke="black" stroke-dasharray="5,2" d="M260.77,-71.7C250.46,-62.44 237.65,-50.95 226.63,-41.06"/>
<polygon fill="black" stroke="black" points="228.77,-38.28 218.99,-34.2 224.09,-43.49 228.77,-38.28"/>
</g>
<!-- //@nodes.5 -->
<g id="node10" class="node">
<title>//@nodes.5</title>
<ellipse fill="none" stroke="black" cx="317.05" cy="-18" rx="59.59" ry="18"/>
<text text-anchor="middle" x="317.05" y="-14.3" font-family="Times New Roman,serif" font-size="14.00">invalid invalid</text>
</g>
<!-- //@nodes.6&#45;&gt;//@nodes.5 -->
<g id="edge7" class="edge">
<title>//@nodes.6&#45;&gt;//@nodes.5</title>
<path fill="none" stroke="black" stroke-dasharray="5,2" d="M289.19,-71.7C293.45,-63.64 298.6,-53.89 303.31,-44.98"/>
<polygon fill="black" stroke="black" points="306.43,-46.58 308.01,-36.1 300.24,-43.31 306.43,-46.58"/>
</g>
<!-- //@nodes.14 -->
<g id="node16" class="node">
<title>//@nodes.14</title>
<ellipse fill="none" stroke="black" cx="119.05" cy="-18" rx="27" ry="18"/>
<text text-anchor="middle" x="119.05" y="-14.3" font-family="Times New Roman,serif" font-size="14.00">HD</text>
</g>
<!-- //@nodes.15&#45;&gt;//@nodes.14 -->
<g id="edge14" class="edge">
<title>//@nodes.15&#45;&gt;//@nodes.14</title>
<path fill="none" stroke="black" stroke-dasharray="5,2" d="M129.59,-71.7C128.04,-63.98 126.19,-54.71 124.47,-46.11"/>
<polygon fill="black" stroke="black" points="127.86,-45.22 122.47,-36.1 121,-46.6 127.86,-45.22"/>
</g>
<!-- //@nodes.12 -->
<g id="node15" class="node">
<title>//@nodes.12</title>
<ellipse fill="none" stroke="black" cx="37.05" cy="-18" rx="37.09" ry="18"/>
<text text-anchor="middle" x="37.05" y="-14.3" font-family="Times New Roman,serif" font-size="14.00">FullHD</text>
</g>
<!-- //@nodes.13&#45;&gt;//@nodes.12 -->
<g id="edge13" class="edge">
<title>//@nodes.13&#45;&gt;//@nodes.12</title>
<path fill="none" stroke="black" stroke-dasharray="5,2" d="M37.8,-71.7C37.69,-63.98 37.56,-54.71 37.43,-46.11"/>
<polygon fill="black" stroke="black" points="40.93,-46.05 37.29,-36.1 33.93,-46.15 40.93,-46.05"/>
</g>
<!-- //@nodes.16 -->
<g id="node17" class="node">
<title>//@nodes.16</title>
<polygon fill="none" stroke="black" points="289.55,-180 194.55,-180 194.55,-144 289.55,-144 289.55,-180"/>
<text text-anchor="middle" x="242.05" y="-158.3" font-family="Times New Roman,serif" font-size="14.00">my_computer</text>
</g>
<!-- //@nodes.16&#45;&gt;//@nodes.9 -->
<g id="edge18" class="edge">
<title>//@nodes.16&#45;&gt;//@nodes.9</title>
<path fill="none" stroke="black" d="M288.28,-143.88C319.41,-132.35 360.08,-117.28 390.05,-106.19"/>
<polygon fill="black" stroke="black" points="391.61,-109.34 399.77,-102.58 389.18,-102.78 391.61,-109.34"/>
</g>
<!-- //@nodes.16&#45;&gt;//@nodes.6 -->
<g id="edge17" class="edge">
<title>//@nodes.16&#45;&gt;//@nodes.6</title>
<path fill="none" stroke="black" d="M251.44,-143.7C255.81,-135.64 261.1,-125.89 265.94,-116.98"/>
<polygon fill="black" stroke="black" points="269.07,-118.56 270.76,-108.1 262.91,-115.22 269.07,-118.56"/>
</g>
<!-- //@nodes.16&#45;&gt;//@nodes.15 -->
<g id="edge16" class="edge">
<title>//@nodes.16&#45;&gt;//@nodes.15</title>
<path fill="none" stroke="black" d="M215.38,-143.88C201.26,-134.81 183.74,-123.55 168.49,-113.76"/>
<polygon fill="black" stroke="black" points="170.12,-110.65 159.81,-108.19 166.34,-116.54 170.12,-110.65"/>
</g>
<!-- //@nodes.16&#45;&gt;//@nodes.13 -->
<g id="edge15" class="edge">
<title>//@nodes.16&#45;&gt;//@nodes.13</title>
<path fill="none" stroke="black" d="M194.22,-145.6C164.79,-136 126.1,-123.16 83.97,-108.27"/>
<polygon fill="black" stroke="black" points="84.95,-104.9 74.35,-104.86 82.6,-111.5 84.95,-104.9"/>
</g>
</g>
</svg>
