<?xml version="1.0" encoding="UTF-8" standalone="no"?>
<!DOCTYPE svg PUBLIC "-//W3C//DTD SVG 1.1//EN"
 "http://www.w3.org/Graphics/SVG/1.1/DTD/svg11.dtd">
<!-- Generated by graphviz version 2.38.0 (20140413.2041)
 -->
<!-- Title: %3 Pages: 1 -->
<svg width="641pt" height="260pt"
 viewBox="0.00 0.00 640.70 260.00" xmlns="http://www.w3.org/2000/svg" xmlns:xlink="http://www.w3.org/1999/xlink">
<g id="graph0" class="graph" transform="scale(1 1) rotate(0) translate(4 256)">
<title>%3</title>
<polygon fill="white" stroke="none" points="-4,4 -4,-256 636.697,-256 636.697,4 -4,4"/>
<!-- //@nodes.0 -->
<g id="node1" class="node"><title>//@nodes.0</title>
<polygon fill="none" stroke="black" points="552.197,-252 493.197,-252 493.197,-216 552.197,-216 552.197,-252"/>
<text text-anchor="middle" x="522.697" y="-230.3" font-family="Times New Roman,serif" font-size="14.00">Display</text>
</g>
<!-- //@nodes.9 -->
<g id="node2" class="node"><title>//@nodes.9</title>
<polygon fill="none" stroke="black" points="557.197,-180 488.197,-180 488.197,-144 557.197,-144 557.197,-180"/>
<text text-anchor="middle" x="522.697" y="-158.3" font-family="Times New Roman,serif" font-size="14.00">20.0 Inch</text>
</g>
<!-- //@nodes.0&#45;&gt;//@nodes.9 -->
<g id="edge1" class="edge"><title>//@nodes.0&#45;&gt;//@nodes.9</title>
<path fill="none" stroke="black" d="M522.697,-215.697C522.697,-207.983 522.697,-198.712 522.697,-190.112"/>
<polygon fill="black" stroke="black" points="526.197,-190.104 522.697,-180.104 519.197,-190.104 526.197,-190.104"/>
</g>
<!-- //@nodes.11 -->
<g id="node11" class="node"><title>//@nodes.11</title>
<polygon fill="none" stroke="black" points="558.697,-108 486.697,-108 486.697,-72 558.697,-72 558.697,-108"/>
<text text-anchor="middle" x="522.697" y="-86.3" font-family="Times New Roman,serif" font-size="14.00">my_disp2</text>
</g>
<!-- //@nodes.9&#45;&gt;//@nodes.11 -->
<g id="edge9" class="edge"><title>//@nodes.9&#45;&gt;//@nodes.11</title>
<path fill="none" stroke="black" d="M522.697,-143.697C522.697,-135.983 522.697,-126.712 522.697,-118.112"/>
<polygon fill="black" stroke="black" points="526.197,-118.104 522.697,-108.104 519.197,-118.104 526.197,-118.104"/>
</g>
<!-- //@nodes.13 -->
<g id="node12" class="node"><title>//@nodes.13</title>
<polygon fill="none" stroke="black" points="468.197,-108 387.197,-108 387.197,-72 468.197,-72 468.197,-108"/>
<text text-anchor="middle" x="427.697" y="-86.3" font-family="Times New Roman,serif" font-size="14.00">my_display</text>
</g>
<!-- //@nodes.9&#45;&gt;//@nodes.13 -->
<g id="edge10" class="edge"><title>//@nodes.9&#45;&gt;//@nodes.13</title>
<path fill="none" stroke="black" d="M499.214,-143.697C487.134,-134.796 472.242,-123.823 459.181,-114.199"/>
<polygon fill="black" stroke="black" points="461.036,-111.219 450.91,-108.104 456.884,-116.854 461.036,-111.219"/>
</g>
<!-- //@nodes.15 -->
<g id="node13" class="node"><title>//@nodes.15</title>
<polygon fill="none" stroke="black" points="632.197,-108 577.197,-108 577.197,-72 632.197,-72 632.197,-108"/>
<text text-anchor="middle" x="604.697" y="-86.3" font-family="Times New Roman,serif" font-size="14.00">disp_3</text>
</g>
<!-- //@nodes.9&#45;&gt;//@nodes.15 -->
<g id="edge11" class="edge"><title>//@nodes.9&#45;&gt;//@nodes.15</title>
<path fill="none" stroke="black" d="M542.966,-143.697C553.194,-134.965 565.758,-124.24 576.875,-114.75"/>
<polygon fill="black" stroke="black" points="579.327,-117.259 584.66,-108.104 574.782,-111.935 579.327,-117.259"/>
</g>
<!-- //@nodes.1 -->
<g id="node3" class="node"><title>//@nodes.1</title>
<polygon fill="none" stroke="black" points="309.697,-252 255.697,-252 255.697,-216 309.697,-216 309.697,-252"/>
<text text-anchor="middle" x="282.697" y="-230.3" font-family="Times New Roman,serif" font-size="14.00">CPU</text>
</g>
<!-- //@nodes.2 -->
<g id="node4" class="node"><title>//@nodes.2</title>
<polygon fill="none" stroke="black" points="314.697,-180 250.697,-180 250.697,-144 314.697,-144 314.697,-180"/>
<text text-anchor="middle" x="282.697" y="-158.3" font-family="Times New Roman,serif" font-size="14.00">4.6 GHz</text>
</g>
<!-- //@nodes.1&#45;&gt;//@nodes.2 -->
<g id="edge2" class="edge"><title>//@nodes.1&#45;&gt;//@nodes.2</title>
<path fill="none" stroke="black" d="M282.697,-215.697C282.697,-207.983 282.697,-198.712 282.697,-190.112"/>
<polygon fill="black" stroke="black" points="286.197,-190.104 282.697,-180.104 279.197,-190.104 286.197,-190.104"/>
</g>
<!-- //@nodes.5 -->
<g id="node5" class="node"><title>//@nodes.5</title>
<polygon fill="none" stroke="black" points="237.197,-108 168.197,-108 168.197,-72 237.197,-72 237.197,-108"/>
<text text-anchor="middle" x="202.697" y="-86.3" font-family="Times New Roman,serif" font-size="14.00">my_cpu2</text>
</g>
<!-- //@nodes.2&#45;&gt;//@nodes.5 -->
<g id="edge3" class="edge"><title>//@nodes.2&#45;&gt;//@nodes.5</title>
<path fill="none" stroke="black" d="M262.921,-143.697C252.943,-134.965 240.686,-124.24 229.84,-114.75"/>
<polygon fill="black" stroke="black" points="232.075,-112.055 222.244,-108.104 227.465,-117.323 232.075,-112.055"/>
</g>
<!-- //@nodes.8 -->
<g id="node6" class="node"><title>//@nodes.8</title>
<polygon fill="none" stroke="black" points="340.697,-108 278.697,-108 278.697,-72 340.697,-72 340.697,-108"/>
<text text-anchor="middle" x="309.697" y="-86.3" font-family="Times New Roman,serif" font-size="14.00">my_cpu</text>
</g>
<!-- //@nodes.2&#45;&gt;//@nodes.8 -->
<g id="edge4" class="edge"><title>//@nodes.2&#45;&gt;//@nodes.8</title>
<path fill="none" stroke="black" d="M289.371,-143.697C292.412,-135.813 296.079,-126.304 299.457,-117.546"/>
<polygon fill="black" stroke="black" points="302.766,-118.694 303.099,-108.104 296.235,-116.175 302.766,-118.694"/>
</g>
<!-- //@nodes.3 -->
<g id="node7" class="node"><title>//@nodes.3</title>
<ellipse fill="none" stroke="black" cx="37.6967" cy="-18" rx="37.8943" ry="18"/>
<text text-anchor="middle" x="37.6967" y="-14.3" font-family="Times New Roman,serif" font-size="14.00">6 cores</text>
</g>
<!-- //@nodes.5&#45;&gt;//@nodes.3 -->
<g id="edge6" class="edge"><title>//@nodes.5&#45;&gt;//@nodes.3</title>
<path fill="none" stroke="black" stroke-dasharray="5,2" d="M168.107,-74.3257C140.634,-62.6705 102.314,-46.4134 74.3228,-34.5384"/>
<polygon fill="black" stroke="black" points="75.4602,-31.219 64.8874,-30.5355 72.7263,-37.6631 75.4602,-31.219"/>
</g>
<!-- //@nodes.4 -->
<g id="node8" class="node"><title>//@nodes.4</title>
<ellipse fill="none" stroke="black" cx="152.697" cy="-18" rx="59.5901" ry="18"/>
<text text-anchor="middle" x="152.697" y="-14.3" font-family="Times New Roman,serif" font-size="14.00">invalid invalid</text>
</g>
<!-- //@nodes.5&#45;&gt;//@nodes.4 -->
<g id="edge5" class="edge"><title>//@nodes.5&#45;&gt;//@nodes.4</title>
<path fill="none" stroke="black" stroke-dasharray="5,2" d="M190.337,-71.6966C184.464,-63.4741 177.328,-53.4832 170.854,-44.4207"/>
<polygon fill="black" stroke="black" points="173.575,-42.2073 164.914,-36.1043 167.878,-46.276 173.575,-42.2073"/>
</g>
<!-- //@nodes.6 -->
<g id="node9" class="node"><title>//@nodes.6</title>
<ellipse fill="none" stroke="black" cx="267.697" cy="-18" rx="37.8943" ry="18"/>
<text text-anchor="middle" x="267.697" y="-14.3" font-family="Times New Roman,serif" font-size="14.00">4 cores</text>
</g>
<!-- //@nodes.8&#45;&gt;//@nodes.6 -->
<g id="edge8" class="edge"><title>//@nodes.8&#45;&gt;//@nodes.6</title>
<path fill="none" stroke="black" stroke-dasharray="5,2" d="M299.315,-71.6966C294.359,-63.4374 288.333,-53.394 282.876,-44.2994"/>
<polygon fill="black" stroke="black" points="285.816,-42.3965 277.67,-35.6223 279.814,-45.998 285.816,-42.3965"/>
</g>
<!-- //@nodes.7 -->
<g id="node10" class="node"><title>//@nodes.7</title>
<ellipse fill="none" stroke="black" cx="359.697" cy="-18" rx="36.2938" ry="18"/>
<text text-anchor="middle" x="359.697" y="-14.3" font-family="Times New Roman,serif" font-size="14.00">64 KiB</text>
</g>
<!-- //@nodes.8&#45;&gt;//@nodes.7 -->
<g id="edge7" class="edge"><title>//@nodes.8&#45;&gt;//@nodes.7</title>
<path fill="none" stroke="black" stroke-dasharray="5,2" d="M322.056,-71.6966C328.167,-63.1414 335.645,-52.6717 342.322,-43.3252"/>
<polygon fill="black" stroke="black" points="345.2,-45.3163 348.165,-35.1446 339.504,-41.2476 345.2,-45.3163"/>
</g>
<!-- //@nodes.10 -->
<g id="node14" class="node"><title>//@nodes.10</title>
<ellipse fill="none" stroke="black" cx="522.697" cy="-18" rx="37.0935" ry="18"/>
<text text-anchor="middle" x="522.697" y="-14.3" font-family="Times New Roman,serif" font-size="14.00">FullHD</text>
</g>
<!-- //@nodes.11&#45;&gt;//@nodes.10 -->
<g id="edge12" class="edge"><title>//@nodes.11&#45;&gt;//@nodes.10</title>
<path fill="none" stroke="black" stroke-dasharray="5,2" d="M522.697,-71.6966C522.697,-63.9827 522.697,-54.7125 522.697,-46.1124"/>
<polygon fill="black" stroke="black" points="526.197,-46.1043 522.697,-36.1043 519.197,-46.1044 526.197,-46.1043"/>
</g>
<!-- //@nodes.12 -->
<g id="node15" class="node"><title>//@nodes.12</title>
<ellipse fill="none" stroke="black" cx="440.697" cy="-18" rx="27" ry="18"/>
<text text-anchor="middle" x="440.697" y="-14.3" font-family="Times New Roman,serif" font-size="14.00">HD</text>
</g>
<!-- //@nodes.13&#45;&gt;//@nodes.12 -->
<g id="edge13" class="edge"><title>//@nodes.13&#45;&gt;//@nodes.12</title>
<path fill="none" stroke="black" stroke-dasharray="5,2" d="M430.91,-71.6966C432.343,-63.9827 434.064,-54.7125 435.661,-46.1124"/>
<polygon fill="black" stroke="black" points="439.135,-46.5753 437.52,-36.1043 432.253,-45.2971 439.135,-46.5753"/>
</g>
<!-- //@nodes.14 -->
<g id="node16" class="node"><title>//@nodes.14</title>
<ellipse fill="none" stroke="black" cx="604.697" cy="-18" rx="27" ry="18"/>
<text text-anchor="middle" x="604.697" y="-14.3" font-family="Times New Roman,serif" font-size="14.00">HD</text>
</g>
<!-- //@nodes.15&#45;&gt;//@nodes.14 -->
<g id="edge14" class="edge"><title>//@nodes.15&#45;&gt;//@nodes.14</title>
<path fill="none" stroke="black" stroke-dasharray="5,2" d="M604.697,-71.6966C604.697,-63.9827 604.697,-54.7125 604.697,-46.1124"/>
<polygon fill="black" stroke="black" points="608.197,-46.1043 604.697,-36.1043 601.197,-46.1044 608.197,-46.1043"/>
</g>
<!-- //@nodes.16 -->
<g id="node17" class="node"><title>//@nodes.16</title>
<polygon fill="none" stroke="black" points="442.197,-180 347.197,-180 347.197,-144 442.197,-144 442.197,-180"/>
<text text-anchor="middle" x="394.697" y="-158.3" font-family="Times New Roman,serif" font-size="14.00">my_computer</text>
</g>
<!-- //@nodes.16&#45;&gt;//@nodes.5 -->
<g id="edge17" class="edge"><title>//@nodes.16&#45;&gt;//@nodes.5</title>
<path fill="none" stroke="black" d="M347.728,-143.876C316.974,-132.664 277.043,-118.105 246.868,-107.104"/>
<polygon fill="black" stroke="black" points="248.032,-103.803 237.438,-103.666 245.634,-110.38 248.032,-103.803"/>
</g>
<!-- //@nodes.16&#45;&gt;//@nodes.8 -->
<g id="edge18" class="edge"><title>//@nodes.16&#45;&gt;//@nodes.8</title>
<path fill="none" stroke="black" d="M373.685,-143.697C362.98,-134.881 349.807,-124.032 338.201,-114.474"/>
<polygon fill="black" stroke="black" points="340.411,-111.76 330.466,-108.104 335.961,-117.163 340.411,-111.76"/>
</g>
<!-- //@nodes.16&#45;&gt;//@nodes.11 -->
<g id="edge15" class="edge"><title>//@nodes.16&#45;&gt;//@nodes.11</title>
<path fill="none" stroke="black" d="M426.009,-143.876C442.9,-134.639 463.943,-123.131 482.081,-113.212"/>
<polygon fill="black" stroke="black" points="484.17,-116.059 491.264,-108.19 480.811,-109.917 484.17,-116.059"/>
</g>
<!-- //@nodes.16&#45;&gt;//@nodes.13 -->
<g id="edge16" class="edge"><title>//@nodes.16&#45;&gt;//@nodes.13</title>
<path fill="none" stroke="black" d="M402.854,-143.697C406.61,-135.728 411.15,-126.1 415.315,-117.264"/>
<polygon fill="black" stroke="black" points="418.535,-118.642 419.633,-108.104 412.203,-115.657 418.535,-118.642"/>
</g>
<!-- //@nodes.17 -->
<g id="node18" class="node"><title>//@nodes.17</title>
<polygon fill="none" stroke="black" points="632.697,-180 576.697,-180 576.697,-144 632.697,-144 632.697,-180"/>
<text text-anchor="middle" x="604.697" y="-158.3" font-family="Times New Roman,serif" font-size="14.00">comp2</text>
</g>
<!-- //@nodes.17&#45;&gt;//@nodes.15 -->
<g id="edge19" class="edge"><title>//@nodes.17&#45;&gt;//@nodes.15</title>
<path fill="none" stroke="black" d="M604.697,-143.697C604.697,-135.983 604.697,-126.712 604.697,-118.112"/>
<polygon fill="black" stroke="black" points="608.197,-118.104 604.697,-108.104 601.197,-118.104 608.197,-118.104"/>
</g>
</g>
</svg>
