<?xml version="1.0" encoding="UTF-8" standalone="no"?>
<!DOCTYPE svg PUBLIC "-//W3C//DTD SVG 1.1//EN"
 "http://www.w3.org/Graphics/SVG/1.1/DTD/svg11.dtd">
<!-- Generated by graphviz version 2.38.0 (20140413.2041)
 -->
<!-- Title: %3 Pages: 1 -->
<svg width="170pt" height="116pt"
 viewBox="0.00 0.00 169.50 116.00" xmlns="http://www.w3.org/2000/svg" xmlns:xlink="http://www.w3.org/1999/xlink">
<g id="graph0" class="graph" transform="scale(1 1) rotate(0) translate(4 112)">
<title>%3</title>
<polygon fill="white" stroke="none" points="-4,4 -4,-112 165.5,-112 165.5,4 -4,4"/>
<!-- //@nodes.0 -->
<g id="node1" class="node"><title>//@nodes.0</title>
<ellipse fill="none" stroke="black" cx="85.5" cy="-90" rx="48.1917" ry="18"/>
<text text-anchor="middle" x="85.5" y="-86.3" font-family="Times New Roman,serif" font-size="14.00">my_comp</text>
</g>
<!-- //@nodes.1 -->
<g id="node2" class="node"><title>//@nodes.1</title>
<polygon fill="none" stroke="black" points="81,-36 0,-36 0,-0 81,-0 81,-36"/>
<text text-anchor="middle" x="40.5" y="-14.3" font-family="Times New Roman,serif" font-size="14.00">my_display</text>
</g>
<!-- //@nodes.0&#45;&gt;//@nodes.1 -->
<g id="edge1" class="edge"><title>//@nodes.0&#45;&gt;//@nodes.1</title>
<path fill="none" stroke="black" stroke-dasharray="5,2" d="M74.8356,-72.411C69.5571,-64.2 63.0637,-54.0991 57.1497,-44.8996"/>
<polygon fill="black" stroke="black" points="60.0675,-42.9659 51.7158,-36.4468 54.1793,-46.7512 60.0675,-42.9659"/>
</g>
<!-- //@nodes.2 -->
<g id="node3" class="node"><title>//@nodes.2</title>
<polygon fill="none" stroke="black" points="161.5,-36 99.5,-36 99.5,-0 161.5,-0 161.5,-36"/>
<text text-anchor="middle" x="130.5" y="-14.3" font-family="Times New Roman,serif" font-size="14.00">my_cpu</text>
</g>
<!-- //@nodes.0&#45;&gt;//@nodes.2 -->
<g id="edge2" class="edge"><title>//@nodes.0&#45;&gt;//@nodes.2</title>
<path fill="none" stroke="black" stroke-dasharray="5,2" d="M96.1644,-72.411C101.443,-64.2 107.936,-54.0991 113.85,-44.8996"/>
<polygon fill="black" stroke="black" points="116.821,-46.7512 119.284,-36.4468 110.932,-42.9659 116.821,-46.7512"/>
</g>
</g>
</svg>
