<?xml version="1.0" encoding="UTF-8" standalone="no"?>
<!DOCTYPE svg PUBLIC "-//W3C//DTD SVG 1.1//EN"
 "http://www.w3.org/Graphics/SVG/1.1/DTD/svg11.dtd">
<!-- Generated by graphviz version 2.38.0 (20140413.2041)
 -->
<!-- Title: %3 Pages: 1 -->
<svg width="407pt" height="260pt"
 viewBox="0.00 0.00 407.00 260.00" xmlns="http://www.w3.org/2000/svg" xmlns:xlink="http://www.w3.org/1999/xlink">
<g id="graph0" class="graph" transform="scale(1 1) rotate(0) translate(4 256)">
<title>%3</title>
<polygon fill="white" stroke="none" points="-4,4 -4,-256 403,-256 403,4 -4,4"/>
<!-- //@nodes.0 -->
<g id="node1" class="node"><title>//@nodes.0</title>
<polygon fill="none" stroke="black" points="307,-252 248,-252 248,-216 307,-216 307,-252"/>
<text text-anchor="middle" x="277.5" y="-230.3" font-family="Times New Roman,serif" font-size="14.00">Display</text>
</g>
<!-- //@nodes.1 -->
<g id="node2" class="node"><title>//@nodes.1</title>
<polygon fill="none" stroke="black" points="69,-180 0,-180 0,-144 69,-144 69,-180"/>
<text text-anchor="middle" x="34.5" y="-158.3" font-family="Times New Roman,serif" font-size="14.00">34.0 Inch</text>
</g>
<!-- //@nodes.0&#45;&gt;//@nodes.1 -->
<g id="edge1" class="edge"><title>//@nodes.0&#45;&gt;//@nodes.1</title>
<path fill="none" stroke="black" d="M247.7,-226.26C210.184,-217.525 143.657,-201.208 78.6781,-180.216"/>
<polygon fill="black" stroke="black" points="79.6985,-176.868 69.1059,-177.085 77.5224,-183.521 79.6985,-176.868"/>
</g>
<!-- //@nodes.2 -->
<g id="node3" class="node"><title>//@nodes.2</title>
<polygon fill="none" stroke="black" points="312,-180 243,-180 243,-144 312,-144 312,-180"/>
<text text-anchor="middle" x="277.5" y="-158.3" font-family="Times New Roman,serif" font-size="14.00">20.0 Inch</text>
</g>
<!-- //@nodes.0&#45;&gt;//@nodes.2 -->
<g id="edge2" class="edge"><title>//@nodes.0&#45;&gt;//@nodes.2</title>
<path fill="none" stroke="black" d="M277.5,-215.697C277.5,-207.983 277.5,-198.712 277.5,-190.112"/>
<polygon fill="black" stroke="black" points="281,-190.104 277.5,-180.104 274,-190.104 281,-190.104"/>
</g>
<!-- //@nodes.3 -->
<g id="node4" class="node"><title>//@nodes.3</title>
<polygon fill="none" stroke="black" points="399,-180 330,-180 330,-144 399,-144 399,-180"/>
<text text-anchor="middle" x="364.5" y="-158.3" font-family="Times New Roman,serif" font-size="14.00">20.0 Inch</text>
</g>
<!-- //@nodes.0&#45;&gt;//@nodes.3 -->
<g id="edge3" class="edge"><title>//@nodes.0&#45;&gt;//@nodes.3</title>
<path fill="none" stroke="black" d="M299.006,-215.697C309.963,-206.881 323.446,-196.032 335.325,-186.474"/>
<polygon fill="black" stroke="black" points="337.645,-189.1 343.242,-180.104 333.256,-183.646 337.645,-189.1"/>
</g>
<!-- //@nodes.9 -->
<g id="node5" class="node"><title>//@nodes.9</title>
<polygon fill="none" stroke="black" points="130.5,-108 58.5,-108 58.5,-72 130.5,-72 130.5,-108"/>
<text text-anchor="middle" x="94.5" y="-86.3" font-family="Times New Roman,serif" font-size="14.00">my_disp3</text>
</g>
<!-- //@nodes.1&#45;&gt;//@nodes.9 -->
<g id="edge4" class="edge"><title>//@nodes.1&#45;&gt;//@nodes.9</title>
<path fill="none" stroke="black" d="M49.3315,-143.697C56.5247,-135.305 65.2967,-125.07 73.1903,-115.861"/>
<polygon fill="black" stroke="black" points="75.9886,-117.975 79.8391,-108.104 70.6738,-113.419 75.9886,-117.975"/>
</g>
<!-- //@nodes.5 -->
<g id="node6" class="node"><title>//@nodes.5</title>
<polygon fill="none" stroke="black" points="256.5,-108 184.5,-108 184.5,-72 256.5,-72 256.5,-108"/>
<text text-anchor="middle" x="220.5" y="-86.3" font-family="Times New Roman,serif" font-size="14.00">my_disp2</text>
</g>
<!-- //@nodes.2&#45;&gt;//@nodes.5 -->
<g id="edge5" class="edge"><title>//@nodes.2&#45;&gt;//@nodes.5</title>
<path fill="none" stroke="black" d="M263.41,-143.697C256.577,-135.305 248.243,-125.07 240.744,-115.861"/>
<polygon fill="black" stroke="black" points="243.456,-113.649 234.428,-108.104 238.028,-118.069 243.456,-113.649"/>
</g>
<!-- //@nodes.7 -->
<g id="node7" class="node"><title>//@nodes.7</title>
<polygon fill="none" stroke="black" points="346.5,-108 274.5,-108 274.5,-72 346.5,-72 346.5,-108"/>
<text text-anchor="middle" x="310.5" y="-86.3" font-family="Times New Roman,serif" font-size="14.00">my_disp1</text>
</g>
<!-- //@nodes.2&#45;&gt;//@nodes.7 -->
<g id="edge6" class="edge"><title>//@nodes.2&#45;&gt;//@nodes.7</title>
<path fill="none" stroke="black" d="M285.657,-143.697C289.414,-135.728 293.953,-126.1 298.118,-117.264"/>
<polygon fill="black" stroke="black" points="301.338,-118.642 302.437,-108.104 295.006,-115.657 301.338,-118.642"/>
</g>
<!-- //@nodes.3&#45;&gt;//@nodes.5 -->
<g id="edge7" class="edge"><title>//@nodes.3&#45;&gt;//@nodes.5</title>
<path fill="none" stroke="black" d="M329.642,-144.055C310.065,-134.538 285.443,-122.57 264.542,-112.409"/>
<polygon fill="black" stroke="black" points="266.06,-109.256 255.536,-108.032 263,-115.551 266.06,-109.256"/>
</g>
<!-- //@nodes.3&#45;&gt;//@nodes.7 -->
<g id="edge8" class="edge"><title>//@nodes.3&#45;&gt;//@nodes.7</title>
<path fill="none" stroke="black" d="M351.152,-143.697C344.743,-135.389 336.942,-125.277 329.894,-116.141"/>
<polygon fill="black" stroke="black" points="332.574,-113.884 323.695,-108.104 327.032,-118.16 332.574,-113.884"/>
</g>
<!-- //@nodes.8 -->
<g id="node10" class="node"><title>//@nodes.8</title>
<ellipse fill="none" stroke="black" cx="94.5" cy="-18" rx="27" ry="18"/>
<text text-anchor="middle" x="94.5" y="-14.3" font-family="Times New Roman,serif" font-size="14.00">5K</text>
</g>
<!-- //@nodes.9&#45;&gt;//@nodes.8 -->
<g id="edge11" class="edge"><title>//@nodes.9&#45;&gt;//@nodes.8</title>
<path fill="none" stroke="black" stroke-dasharray="5,2" d="M94.5,-71.6966C94.5,-63.9827 94.5,-54.7125 94.5,-46.1124"/>
<polygon fill="black" stroke="black" points="98.0001,-46.1043 94.5,-36.1043 91.0001,-46.1044 98.0001,-46.1043"/>
</g>
<!-- //@nodes.4 -->
<g id="node8" class="node"><title>//@nodes.4</title>
<ellipse fill="none" stroke="black" cx="220.5" cy="-18" rx="39.7935" ry="18"/>
<text text-anchor="middle" x="220.5" y="-14.3" font-family="Times New Roman,serif" font-size="14.00">Full HD</text>
</g>
<!-- //@nodes.5&#45;&gt;//@nodes.4 -->
<g id="edge9" class="edge"><title>//@nodes.5&#45;&gt;//@nodes.4</title>
<path fill="none" stroke="black" stroke-dasharray="5,2" d="M220.5,-71.6966C220.5,-63.9827 220.5,-54.7125 220.5,-46.1124"/>
<polygon fill="black" stroke="black" points="224,-46.1043 220.5,-36.1043 217,-46.1044 224,-46.1043"/>
</g>
<!-- //@nodes.6 -->
<g id="node9" class="node"><title>//@nodes.6</title>
<ellipse fill="none" stroke="black" cx="310.5" cy="-18" rx="27" ry="18"/>
<text text-anchor="middle" x="310.5" y="-14.3" font-family="Times New Roman,serif" font-size="14.00">4K</text>
</g>
<!-- //@nodes.7&#45;&gt;//@nodes.6 -->
<g id="edge10" class="edge"><title>//@nodes.7&#45;&gt;//@nodes.6</title>
<path fill="none" stroke="black" stroke-dasharray="5,2" d="M310.5,-71.6966C310.5,-63.9827 310.5,-54.7125 310.5,-46.1124"/>
<polygon fill="black" stroke="black" points="314,-46.1043 310.5,-36.1043 307,-46.1044 314,-46.1043"/>
</g>
<!-- //@nodes.10 -->
<g id="node11" class="node"><title>//@nodes.10</title>
<polygon fill="none" stroke="black" points="224.5,-180 168.5,-180 168.5,-144 224.5,-144 224.5,-180"/>
<text text-anchor="middle" x="196.5" y="-158.3" font-family="Times New Roman,serif" font-size="14.00">comp1</text>
</g>
<!-- //@nodes.10&#45;&gt;//@nodes.5 -->
<g id="edge12" class="edge"><title>//@nodes.10&#45;&gt;//@nodes.5</title>
<path fill="none" stroke="black" d="M202.433,-143.697C205.106,-135.898 208.326,-126.509 211.301,-117.829"/>
<polygon fill="black" stroke="black" points="214.703,-118.699 214.636,-108.104 208.082,-116.429 214.703,-118.699"/>
</g>
<!-- //@nodes.10&#45;&gt;//@nodes.7 -->
<g id="edge13" class="edge"><title>//@nodes.10&#45;&gt;//@nodes.7</title>
<path fill="none" stroke="black" d="M224.388,-143.876C239.293,-134.724 257.829,-123.342 273.882,-113.485"/>
<polygon fill="black" stroke="black" points="275.815,-116.405 282.505,-108.19 272.152,-110.44 275.815,-116.405"/>
</g>
<!-- //@nodes.11 -->
<g id="node12" class="node"><title>//@nodes.11</title>
<polygon fill="none" stroke="black" points="150,-180 87,-180 87,-144 150,-144 150,-180"/>
<text text-anchor="middle" x="118.5" y="-158.3" font-family="Times New Roman,serif" font-size="14.00">comp_2</text>
</g>
<!-- //@nodes.11&#45;&gt;//@nodes.9 -->
<g id="edge14" class="edge"><title>//@nodes.11&#45;&gt;//@nodes.9</title>
<path fill="none" stroke="black" d="M112.567,-143.697C109.894,-135.898 106.674,-126.509 103.699,-117.829"/>
<polygon fill="black" stroke="black" points="106.918,-116.429 100.364,-108.104 100.297,-118.699 106.918,-116.429"/>
</g>
</g>
</svg>
