<?xml version="1.0" encoding="UTF-8" standalone="no"?>
<!DOCTYPE svg PUBLIC "-//W3C//DTD SVG 1.1//EN"
 "http://www.w3.org/Graphics/SVG/1.1/DTD/svg11.dtd">
<!-- Generated by graphviz version 4.0.0 (20220529.0937)
 -->
<!-- Pages: 1 -->
<svg width="277pt" height="188pt"
 viewBox="0.00 0.00 277.00 188.00" xmlns="http://www.w3.org/2000/svg" xmlns:xlink="http://www.w3.org/1999/xlink">
<g id="graph0" class="graph" transform="scale(1 1) rotate(0) translate(4 184)">
<polygon fill="white" stroke="transparent" points="-4,4 -4,-184 273,-184 273,4 -4,4"/>
<!-- //@nodes.0 -->
<g id="node1" class="node">
<title>//@nodes.0</title>
<polygon fill="none" stroke="black" points="164,-180 105,-180 105,-144 164,-144 164,-180"/>
<text text-anchor="middle" x="134.5" y="-158.3" font-family="Times New Roman,serif" font-size="14.00">Display</text>
</g>
<!-- //@nodes.1 -->
<g id="node2" class="node">
<title>//@nodes.1</title>
<polygon fill="none" stroke="black" points="69,-108 0,-108 0,-72 69,-72 69,-108"/>
<text text-anchor="middle" x="34.5" y="-86.3" font-family="Times New Roman,serif" font-size="14.00">34.0 Inch</text>
</g>
<!-- //@nodes.0&#45;&gt;//@nodes.1 -->
<g id="edge1" class="edge">
<title>//@nodes.0&#45;&gt;//@nodes.1</title>
<path fill="none" stroke="black" d="M110.04,-143.88C97.2,-134.89 81.3,-123.76 67.41,-114.03"/>
<polygon fill="black" stroke="black" points="69.26,-111.06 59.06,-108.19 65.24,-116.79 69.26,-111.06"/>
</g>
<!-- //@nodes.2 -->
<g id="node3" class="node">
<title>//@nodes.2</title>
<polygon fill="none" stroke="black" points="269,-108 200,-108 200,-72 269,-72 269,-108"/>
<text text-anchor="middle" x="234.5" y="-86.3" font-family="Times New Roman,serif" font-size="14.00">20.0 Inch</text>
</g>
<!-- //@nodes.0&#45;&gt;//@nodes.2 -->
<g id="edge2" class="edge">
<title>//@nodes.0&#45;&gt;//@nodes.2</title>
<path fill="none" stroke="black" d="M158.96,-143.88C171.8,-134.89 187.7,-123.76 201.59,-114.03"/>
<polygon fill="black" stroke="black" points="203.76,-116.79 209.94,-108.19 199.74,-111.06 203.76,-116.79"/>
</g>
<!-- //@nodes.4 -->
<g id="node4" class="node">
<title>//@nodes.4</title>
<polygon fill="none" stroke="black" points="121.5,-36 49.5,-36 49.5,0 121.5,0 121.5,-36"/>
<text text-anchor="middle" x="85.5" y="-14.3" font-family="Times New Roman,serif" font-size="14.00">my_disp2</text>
</g>
<!-- //@nodes.1&#45;&gt;//@nodes.4 -->
<g id="edge3" class="edge">
<title>//@nodes.1&#45;&gt;//@nodes.4</title>
<path fill="none" stroke="black" d="M47.11,-71.7C53.1,-63.47 60.38,-53.48 66.98,-44.42"/>
<polygon fill="black" stroke="black" points="69.98,-46.25 73.04,-36.1 64.32,-42.13 69.98,-46.25"/>
</g>
<!-- //@nodes.3 -->
<g id="node5" class="node">
<title>//@nodes.3</title>
<polygon fill="none" stroke="black" points="223,-36 142,-36 142,0 223,0 223,-36"/>
<text text-anchor="middle" x="182.5" y="-14.3" font-family="Times New Roman,serif" font-size="14.00">my_display</text>
</g>
<!-- //@nodes.2&#45;&gt;//@nodes.3 -->
<g id="edge4" class="edge">
<title>//@nodes.2&#45;&gt;//@nodes.3</title>
<path fill="none" stroke="black" d="M221.65,-71.7C215.47,-63.39 207.96,-53.28 201.18,-44.14"/>
<polygon fill="black" stroke="black" points="203.98,-42.04 195.21,-36.1 198.36,-46.22 203.98,-42.04"/>
</g>
<!-- //@nodes.5 -->
<g id="node6" class="node">
<title>//@nodes.5</title>
<polygon fill="none" stroke="black" points="182,-108 87,-108 87,-72 182,-72 182,-108"/>
<text text-anchor="middle" x="134.5" y="-86.3" font-family="Times New Roman,serif" font-size="14.00">my_computer</text>
</g>
<!-- //@nodes.5&#45;&gt;//@nodes.4 -->
<g id="edge6" class="edge">
<title>//@nodes.5&#45;&gt;//@nodes.4</title>
<path fill="none" stroke="black" d="M122.39,-71.7C116.63,-63.47 109.64,-53.48 103.29,-44.42"/>
<polygon fill="black" stroke="black" points="106.08,-42.29 97.47,-36.1 100.34,-46.3 106.08,-42.29"/>
</g>
<!-- //@nodes.5&#45;&gt;//@nodes.3 -->
<g id="edge5" class="edge">
<title>//@nodes.5&#45;&gt;//@nodes.3</title>
<path fill="none" stroke="black" d="M146.37,-71.7C152,-63.47 158.85,-53.48 165.07,-44.42"/>
<polygon fill="black" stroke="black" points="168,-46.33 170.77,-36.1 162.23,-42.37 168,-46.33"/>
</g>
</g>
</svg>
