<?xml version="1.0" encoding="UTF-8" standalone="no"?>
<!DOCTYPE svg PUBLIC "-//W3C//DTD SVG 1.1//EN"
 "http://www.w3.org/Graphics/SVG/1.1/DTD/svg11.dtd">
<!-- Generated by graphviz version 2.38.0 (20140413.2041)
 -->
<!-- Title: %3 Pages: 1 -->
<svg width="326pt" height="260pt"
 viewBox="0.00 0.00 325.50 260.00" xmlns="http://www.w3.org/2000/svg" xmlns:xlink="http://www.w3.org/1999/xlink">
<g id="graph0" class="graph" transform="scale(1 1) rotate(0) translate(4 256)">
<title>%3</title>
<polygon fill="white" stroke="none" points="-4,4 -4,-256 321.5,-256 321.5,4 -4,4"/>
<!-- //@nodes.0 -->
<g id="node1" class="node"><title>//@nodes.0</title>
<polygon fill="none" stroke="black" points="150.5,-252 91.5,-252 91.5,-216 150.5,-216 150.5,-252"/>
<text text-anchor="middle" x="121" y="-230.3" font-family="Times New Roman,serif" font-size="14.00">Display</text>
</g>
<!-- //@nodes.1 -->
<g id="node2" class="node"><title>//@nodes.1</title>
<polygon fill="none" stroke="black" points="74.5,-180 5.5,-180 5.5,-144 74.5,-144 74.5,-180"/>
<text text-anchor="middle" x="40" y="-158.3" font-family="Times New Roman,serif" font-size="14.00">20.0 Inch</text>
</g>
<!-- //@nodes.0&#45;&gt;//@nodes.1 -->
<g id="edge1" class="edge"><title>//@nodes.0&#45;&gt;//@nodes.1</title>
<path fill="none" stroke="black" d="M100.978,-215.697C90.8744,-206.965 78.464,-196.24 67.4825,-186.75"/>
<polygon fill="black" stroke="black" points="69.6468,-183.995 59.7922,-180.104 65.0698,-189.291 69.6468,-183.995"/>
</g>
<!-- //@nodes.2 -->
<g id="node3" class="node"><title>//@nodes.2</title>
<polygon fill="none" stroke="black" points="236.5,-180 167.5,-180 167.5,-144 236.5,-144 236.5,-180"/>
<text text-anchor="middle" x="202" y="-158.3" font-family="Times New Roman,serif" font-size="14.00">34.0 Inch</text>
</g>
<!-- //@nodes.0&#45;&gt;//@nodes.2 -->
<g id="edge2" class="edge"><title>//@nodes.0&#45;&gt;//@nodes.2</title>
<path fill="none" stroke="black" d="M141.022,-215.697C151.126,-206.965 163.536,-196.24 174.518,-186.75"/>
<polygon fill="black" stroke="black" points="176.93,-189.291 182.208,-180.104 172.353,-183.995 176.93,-189.291"/>
</g>
<!-- //@nodes.6 -->
<g id="node4" class="node"><title>//@nodes.6</title>
<polygon fill="none" stroke="black" points="162,-108 90,-108 90,-72 162,-72 162,-108"/>
<text text-anchor="middle" x="126" y="-86.3" font-family="Times New Roman,serif" font-size="14.00">my_disp2</text>
</g>
<!-- //@nodes.1&#45;&gt;//@nodes.6 -->
<g id="edge3" class="edge"><title>//@nodes.1&#45;&gt;//@nodes.6</title>
<path fill="none" stroke="black" d="M61.2584,-143.697C72.0894,-134.881 85.4178,-124.032 97.1602,-114.474"/>
<polygon fill="black" stroke="black" points="99.4399,-117.132 104.986,-108.104 95.021,-111.703 99.4399,-117.132"/>
</g>
<!-- //@nodes.8 -->
<g id="node5" class="node"><title>//@nodes.8</title>
<polygon fill="none" stroke="black" points="72,-108 0,-108 0,-72 72,-72 72,-108"/>
<text text-anchor="middle" x="36" y="-86.3" font-family="Times New Roman,serif" font-size="14.00">my_disp1</text>
</g>
<!-- //@nodes.1&#45;&gt;//@nodes.8 -->
<g id="edge4" class="edge"><title>//@nodes.1&#45;&gt;//@nodes.8</title>
<path fill="none" stroke="black" d="M39.0112,-143.697C38.5704,-135.983 38.0407,-126.712 37.5493,-118.112"/>
<polygon fill="black" stroke="black" points="41.0423,-117.888 36.9774,-108.104 34.0537,-118.288 41.0423,-117.888"/>
</g>
<!-- //@nodes.4 -->
<g id="node6" class="node"><title>//@nodes.4</title>
<polygon fill="none" stroke="black" points="285,-108 213,-108 213,-72 285,-72 285,-108"/>
<text text-anchor="middle" x="249" y="-86.3" font-family="Times New Roman,serif" font-size="14.00">my_disp3</text>
</g>
<!-- //@nodes.2&#45;&gt;//@nodes.4 -->
<g id="edge5" class="edge"><title>//@nodes.2&#45;&gt;//@nodes.4</title>
<path fill="none" stroke="black" d="M213.618,-143.697C219.139,-135.474 225.847,-125.483 231.932,-116.421"/>
<polygon fill="black" stroke="black" points="234.847,-118.358 237.516,-108.104 229.035,-114.456 234.847,-118.358"/>
</g>
<!-- //@nodes.5 -->
<g id="node8" class="node"><title>//@nodes.5</title>
<ellipse fill="none" stroke="black" cx="126" cy="-18" rx="39.7935" ry="18"/>
<text text-anchor="middle" x="126" y="-14.3" font-family="Times New Roman,serif" font-size="14.00">Full HD</text>
</g>
<!-- //@nodes.6&#45;&gt;//@nodes.5 -->
<g id="edge7" class="edge"><title>//@nodes.6&#45;&gt;//@nodes.5</title>
<path fill="none" stroke="black" stroke-dasharray="5,2" d="M126,-71.6966C126,-63.9827 126,-54.7125 126,-46.1124"/>
<polygon fill="black" stroke="black" points="129.5,-46.1043 126,-36.1043 122.5,-46.1044 129.5,-46.1043"/>
</g>
<!-- //@nodes.7 -->
<g id="node9" class="node"><title>//@nodes.7</title>
<ellipse fill="none" stroke="black" cx="36" cy="-18" rx="27" ry="18"/>
<text text-anchor="middle" x="36" y="-14.3" font-family="Times New Roman,serif" font-size="14.00">4K</text>
</g>
<!-- //@nodes.8&#45;&gt;//@nodes.7 -->
<g id="edge8" class="edge"><title>//@nodes.8&#45;&gt;//@nodes.7</title>
<path fill="none" stroke="black" stroke-dasharray="5,2" d="M36,-71.6966C36,-63.9827 36,-54.7125 36,-46.1124"/>
<polygon fill="black" stroke="black" points="39.5001,-46.1043 36,-36.1043 32.5001,-46.1044 39.5001,-46.1043"/>
</g>
<!-- //@nodes.3 -->
<g id="node7" class="node"><title>//@nodes.3</title>
<ellipse fill="none" stroke="black" cx="249" cy="-18" rx="27" ry="18"/>
<text text-anchor="middle" x="249" y="-14.3" font-family="Times New Roman,serif" font-size="14.00">5K</text>
</g>
<!-- //@nodes.4&#45;&gt;//@nodes.3 -->
<g id="edge6" class="edge"><title>//@nodes.4&#45;&gt;//@nodes.3</title>
<path fill="none" stroke="black" stroke-dasharray="5,2" d="M249,-71.6966C249,-63.9827 249,-54.7125 249,-46.1124"/>
<polygon fill="black" stroke="black" points="252.5,-46.1043 249,-36.1043 245.5,-46.1044 252.5,-46.1043"/>
</g>
<!-- //@nodes.9 -->
<g id="node10" class="node"><title>//@nodes.9</title>
<polygon fill="none" stroke="black" points="149,-180 93,-180 93,-144 149,-144 149,-180"/>
<text text-anchor="middle" x="121" y="-158.3" font-family="Times New Roman,serif" font-size="14.00">comp1</text>
</g>
<!-- //@nodes.9&#45;&gt;//@nodes.6 -->
<g id="edge9" class="edge"><title>//@nodes.9&#45;&gt;//@nodes.6</title>
<path fill="none" stroke="black" d="M122.236,-143.697C122.787,-135.983 123.449,-126.712 124.063,-118.112"/>
<polygon fill="black" stroke="black" points="127.557,-118.328 124.778,-108.104 120.575,-117.83 127.557,-118.328"/>
</g>
<!-- //@nodes.9&#45;&gt;//@nodes.8 -->
<g id="edge10" class="edge"><title>//@nodes.9&#45;&gt;//@nodes.8</title>
<path fill="none" stroke="black" d="M99.9888,-143.697C89.2837,-134.881 76.1103,-124.032 64.5044,-114.474"/>
<polygon fill="black" stroke="black" points="66.7139,-111.76 56.7695,-108.104 62.2639,-117.163 66.7139,-111.76"/>
</g>
<!-- //@nodes.10 -->
<g id="node11" class="node"><title>//@nodes.10</title>
<polygon fill="none" stroke="black" points="317.5,-180 254.5,-180 254.5,-144 317.5,-144 317.5,-180"/>
<text text-anchor="middle" x="286" y="-158.3" font-family="Times New Roman,serif" font-size="14.00">comp_2</text>
</g>
<!-- //@nodes.10&#45;&gt;//@nodes.4 -->
<g id="edge11" class="edge"><title>//@nodes.10&#45;&gt;//@nodes.4</title>
<path fill="none" stroke="black" d="M276.854,-143.697C272.597,-135.644 267.444,-125.894 262.734,-116.982"/>
<polygon fill="black" stroke="black" points="265.808,-115.31 258.041,-108.104 259.62,-118.581 265.808,-115.31"/>
</g>
</g>
</svg>
