<?xml version="1.0" encoding="UTF-8" standalone="no"?>
<!DOCTYPE svg PUBLIC "-//W3C//DTD SVG 1.1//EN"
 "http://www.w3.org/Graphics/SVG/1.1/DTD/svg11.dtd">
<!-- Generated by graphviz version 2.38.0 (20140413.2041)
 -->
<!-- Title: %3 Pages: 1 -->
<svg width="392pt" height="116pt"
 viewBox="0.00 0.00 391.94 116.00" xmlns="http://www.w3.org/2000/svg" xmlns:xlink="http://www.w3.org/1999/xlink">
<g id="graph0" class="graph" transform="scale(1 1) rotate(0) translate(4 112)">
<title>%3</title>
<polygon fill="white" stroke="none" points="-4,4 -4,-112 387.942,-112 387.942,4 -4,4"/>
<!-- //@nodes.ID=0 -->
<g id="node1" class="node"><title>//@nodes.ID=0</title>
<ellipse fill="none" stroke="black" cx="113.645" cy="-90" rx="48.1917" ry="18"/>
<text text-anchor="middle" x="113.645" y="-86.3" font-family="Times New Roman,serif" font-size="14.00">my_comp</text>
</g>
<!-- //@nodes.1 -->
<g id="node2" class="node"><title>//@nodes.1</title>
<ellipse fill="none" stroke="black" cx="52.6453" cy="-18" rx="52.7911" ry="18"/>
<text text-anchor="middle" x="52.6453" y="-14.3" font-family="Times New Roman,serif" font-size="14.00">//@nodes.1</text>
</g>
<!-- //@nodes.ID=0&#45;&gt;//@nodes.1 -->
<g id="edge1" class="edge"><title>//@nodes.ID=0&#45;&gt;//@nodes.1</title>
<path fill="none" stroke="black" d="M99.4974,-72.7646C91.9084,-64.056 82.4018,-53.1467 73.9387,-43.435"/>
<polygon fill="black" stroke="black" points="76.3487,-40.8731 67.1401,-35.6334 71.0713,-45.472 76.3487,-40.8731"/>
</g>
<!-- //@nodes.2 -->
<g id="node3" class="node"><title>//@nodes.2</title>
<ellipse fill="none" stroke="black" cx="175.645" cy="-18" rx="52.7911" ry="18"/>
<text text-anchor="middle" x="175.645" y="-14.3" font-family="Times New Roman,serif" font-size="14.00">//@nodes.2</text>
</g>
<!-- //@nodes.ID=0&#45;&gt;//@nodes.2 -->
<g id="edge2" class="edge"><title>//@nodes.ID=0&#45;&gt;//@nodes.2</title>
<path fill="none" stroke="black" d="M128.025,-72.7646C135.816,-63.9689 145.595,-52.9283 154.261,-43.144"/>
<polygon fill="black" stroke="black" points="156.903,-45.4399 160.913,-35.6334 151.662,-40.7987 156.903,-45.4399"/>
</g>
<!-- //@nodes.ID=1 -->
<g id="node4" class="node"><title>//@nodes.ID=1</title>
<ellipse fill="none" stroke="black" cx="232.645" cy="-90" rx="52.7911" ry="18"/>
<text text-anchor="middle" x="232.645" y="-86.3" font-family="Times New Roman,serif" font-size="14.00">my_display</text>
</g>
<!-- //@nodes.ID=2 -->
<g id="node5" class="node"><title>//@nodes.ID=2</title>
<ellipse fill="none" stroke="black" cx="343.645" cy="-90" rx="40.0939" ry="18"/>
<text text-anchor="middle" x="343.645" y="-86.3" font-family="Times New Roman,serif" font-size="14.00">my_cpu</text>
</g>
</g>
</svg>
