<?xml version="1.0" encoding="UTF-8" standalone="no"?>
<!DOCTYPE svg PUBLIC "-//W3C//DTD SVG 1.1//EN"
 "http://www.w3.org/Graphics/SVG/1.1/DTD/svg11.dtd">
<!-- Generated by graphviz version 2.38.0 (20140413.2041)
 -->
<!-- Title: %3 Pages: 1 -->
<svg width="277pt" height="260pt"
 viewBox="0.00 0.00 277.00 260.00" xmlns="http://www.w3.org/2000/svg" xmlns:xlink="http://www.w3.org/1999/xlink">
<g id="graph0" class="graph" transform="scale(1 1) rotate(0) translate(4 256)">
<title>%3</title>
<polygon fill="white" stroke="none" points="-4,4 -4,-256 273,-256 273,4 -4,4"/>
<!-- //@nodes.0 -->
<g id="node1" class="node"><title>//@nodes.0</title>
<polygon fill="none" stroke="black" points="164,-252 105,-252 105,-216 164,-216 164,-252"/>
<text text-anchor="middle" x="134.5" y="-230.3" font-family="Times New Roman,serif" font-size="14.00">Display</text>
</g>
<!-- //@nodes.1 -->
<g id="node2" class="node"><title>//@nodes.1</title>
<polygon fill="none" stroke="black" points="69,-180 0,-180 0,-144 69,-144 69,-180"/>
<text text-anchor="middle" x="34.5" y="-158.3" font-family="Times New Roman,serif" font-size="14.00">34.0 Inch</text>
</g>
<!-- //@nodes.0&#45;&gt;//@nodes.1 -->
<g id="edge1" class="edge"><title>//@nodes.0&#45;&gt;//@nodes.1</title>
<path fill="none" stroke="black" d="M110.037,-215.876C97.2044,-206.893 81.3036,-195.763 67.4059,-186.034"/>
<polygon fill="black" stroke="black" points="69.2563,-183.057 59.0568,-180.19 65.242,-188.792 69.2563,-183.057"/>
</g>
<!-- //@nodes.2 -->
<g id="node3" class="node"><title>//@nodes.2</title>
<polygon fill="none" stroke="black" points="269,-180 200,-180 200,-144 269,-144 269,-180"/>
<text text-anchor="middle" x="234.5" y="-158.3" font-family="Times New Roman,serif" font-size="14.00">20.0 Inch</text>
</g>
<!-- //@nodes.0&#45;&gt;//@nodes.2 -->
<g id="edge2" class="edge"><title>//@nodes.0&#45;&gt;//@nodes.2</title>
<path fill="none" stroke="black" d="M158.963,-215.876C171.796,-206.893 187.696,-195.763 201.594,-186.034"/>
<polygon fill="black" stroke="black" points="203.758,-188.792 209.943,-180.19 199.744,-183.057 203.758,-188.792"/>
</g>
<!-- //@nodes.5 -->
<g id="node4" class="node"><title>//@nodes.5</title>
<polygon fill="none" stroke="black" points="121.5,-108 49.5,-108 49.5,-72 121.5,-72 121.5,-108"/>
<text text-anchor="middle" x="85.5" y="-86.3" font-family="Times New Roman,serif" font-size="14.00">my_disp2</text>
</g>
<!-- //@nodes.1&#45;&gt;//@nodes.5 -->
<g id="edge3" class="edge"><title>//@nodes.1&#45;&gt;//@nodes.5</title>
<path fill="none" stroke="black" d="M47.1067,-143.697C53.0974,-135.474 60.3765,-125.483 66.9792,-116.421"/>
<polygon fill="black" stroke="black" points="69.9785,-118.248 73.0383,-108.104 64.3208,-114.126 69.9785,-118.248"/>
</g>
<!-- //@nodes.3 -->
<g id="node5" class="node"><title>//@nodes.3</title>
<polygon fill="none" stroke="black" points="223,-108 142,-108 142,-72 223,-72 223,-108"/>
<text text-anchor="middle" x="182.5" y="-86.3" font-family="Times New Roman,serif" font-size="14.00">my_display</text>
</g>
<!-- //@nodes.2&#45;&gt;//@nodes.3 -->
<g id="edge4" class="edge"><title>//@nodes.2&#45;&gt;//@nodes.3</title>
<path fill="none" stroke="black" d="M221.646,-143.697C215.475,-135.389 207.963,-125.277 201.176,-116.141"/>
<polygon fill="black" stroke="black" points="203.979,-114.045 195.206,-108.104 198.36,-118.219 203.979,-114.045"/>
</g>
<!-- //@nodes.4 -->
<g id="node7" class="node"><title>//@nodes.4</title>
<ellipse fill="none" stroke="black" cx="85.5" cy="-18" rx="37.0935" ry="18"/>
<text text-anchor="middle" x="85.5" y="-14.3" font-family="Times New Roman,serif" font-size="14.00">FullHD</text>
</g>
<!-- //@nodes.5&#45;&gt;//@nodes.4 -->
<g id="edge6" class="edge"><title>//@nodes.5&#45;&gt;//@nodes.4</title>
<path fill="none" stroke="black" stroke-dasharray="5,2" d="M85.5,-71.6966C85.5,-63.9827 85.5,-54.7125 85.5,-46.1124"/>
<polygon fill="black" stroke="black" points="89.0001,-46.1043 85.5,-36.1043 82.0001,-46.1044 89.0001,-46.1043"/>
</g>
<!-- //@nodes.7 -->
<g id="node6" class="node"><title>//@nodes.7</title>
<ellipse fill="none" stroke="black" cx="182.5" cy="-18" rx="27" ry="18"/>
<text text-anchor="middle" x="182.5" y="-14.3" font-family="Times New Roman,serif" font-size="14.00">HD</text>
</g>
<!-- //@nodes.3&#45;&gt;//@nodes.7 -->
<g id="edge5" class="edge"><title>//@nodes.3&#45;&gt;//@nodes.7</title>
<path fill="none" stroke="black" stroke-dasharray="5,2" d="M182.5,-71.6966C182.5,-63.9827 182.5,-54.7125 182.5,-46.1124"/>
<polygon fill="black" stroke="black" points="186,-46.1043 182.5,-36.1043 179,-46.1044 186,-46.1043"/>
</g>
<!-- //@nodes.6 -->
<g id="node8" class="node"><title>//@nodes.6</title>
<polygon fill="none" stroke="black" points="182,-180 87,-180 87,-144 182,-144 182,-180"/>
<text text-anchor="middle" x="134.5" y="-158.3" font-family="Times New Roman,serif" font-size="14.00">my_computer</text>
</g>
<!-- //@nodes.6&#45;&gt;//@nodes.5 -->
<g id="edge8" class="edge"><title>//@nodes.6&#45;&gt;//@nodes.5</title>
<path fill="none" stroke="black" d="M122.388,-143.697C116.632,-135.474 109.638,-125.483 103.294,-116.421"/>
<polygon fill="black" stroke="black" points="106.075,-114.29 97.473,-108.104 100.34,-118.304 106.075,-114.29"/>
</g>
<!-- //@nodes.6&#45;&gt;//@nodes.3 -->
<g id="edge7" class="edge"><title>//@nodes.6&#45;&gt;//@nodes.3</title>
<path fill="none" stroke="black" d="M146.365,-143.697C152.003,-135.474 158.854,-125.483 165.069,-116.421"/>
<polygon fill="black" stroke="black" points="168.003,-118.331 170.771,-108.104 162.229,-114.372 168.003,-118.331"/>
</g>
</g>
</svg>
