<?xml version="1.0" encoding="UTF-8" standalone="no"?>
<!DOCTYPE svg PUBLIC "-//W3C//DTD SVG 1.1//EN"
 "http://www.w3.org/Graphics/SVG/1.1/DTD/svg11.dtd">
<!-- Generated by graphviz version 4.0.0 (20220529.0937)
 -->
<!-- Pages: 1 -->
<svg width="580pt" height="260pt"
 viewBox="0.00 0.00 579.90 260.00" xmlns="http://www.w3.org/2000/svg" xmlns:xlink="http://www.w3.org/1999/xlink">
<g id="graph0" class="graph" transform="scale(1 1) rotate(0) translate(4 256)">
<polygon fill="white" stroke="transparent" points="-4,4 -4,-256 575.9,-256 575.9,4 -4,4"/>
<!-- //@nodes.0 -->
<g id="node1" class="node">
<title>//@nodes.0</title>
<polygon fill="none" stroke="black" points="120,-252 61,-252 61,-216 120,-216 120,-252"/>
<text text-anchor="middle" x="90.5" y="-230.3" font-family="Times New Roman,serif" font-size="14.00">Display</text>
</g>
<!-- //@nodes.10 -->
<g id="node2" class="node">
<title>//@nodes.10</title>
<polygon fill="none" stroke="black" points="168,-180 99,-180 99,-144 168,-144 168,-180"/>
<text text-anchor="middle" x="133.5" y="-158.3" font-family="Times New Roman,serif" font-size="14.00">34.0 Inch</text>
</g>
<!-- //@nodes.0&#45;&gt;//@nodes.10 -->
<g id="edge1" class="edge">
<title>//@nodes.0&#45;&gt;//@nodes.10</title>
<path fill="none" stroke="black" d="M101.13,-215.7C106.13,-207.56 112.19,-197.69 117.71,-188.7"/>
<polygon fill="black" stroke="black" points="120.74,-190.46 122.99,-180.1 114.78,-186.79 120.74,-190.46"/>
</g>
<!-- //@nodes.11 -->
<g id="node3" class="node">
<title>//@nodes.11</title>
<polygon fill="none" stroke="black" points="79,-180 10,-180 10,-144 79,-144 79,-180"/>
<text text-anchor="middle" x="44.5" y="-158.3" font-family="Times New Roman,serif" font-size="14.00">20.0 Inch</text>
</g>
<!-- //@nodes.0&#45;&gt;//@nodes.11 -->
<g id="edge2" class="edge">
<title>//@nodes.0&#45;&gt;//@nodes.11</title>
<path fill="none" stroke="black" d="M79.13,-215.7C73.78,-207.56 67.3,-197.69 61.39,-188.7"/>
<polygon fill="black" stroke="black" points="64.16,-186.54 55.74,-180.1 58.31,-190.38 64.16,-186.54"/>
</g>
<!-- //@nodes.13 -->
<g id="node13" class="node">
<title>//@nodes.13</title>
<polygon fill="none" stroke="black" points="171.5,-108 99.5,-108 99.5,-72 171.5,-72 171.5,-108"/>
<text text-anchor="middle" x="135.5" y="-86.3" font-family="Times New Roman,serif" font-size="14.00">my_disp2</text>
</g>
<!-- //@nodes.10&#45;&gt;//@nodes.13 -->
<g id="edge11" class="edge">
<title>//@nodes.10&#45;&gt;//@nodes.13</title>
<path fill="none" stroke="black" d="M133.99,-143.7C134.21,-135.98 134.48,-126.71 134.73,-118.11"/>
<polygon fill="black" stroke="black" points="138.22,-118.2 135.01,-108.1 131.23,-118 138.22,-118.2"/>
</g>
<!-- //@nodes.15 -->
<g id="node14" class="node">
<title>//@nodes.15</title>
<polygon fill="none" stroke="black" points="81,-108 0,-108 0,-72 81,-72 81,-108"/>
<text text-anchor="middle" x="40.5" y="-86.3" font-family="Times New Roman,serif" font-size="14.00">my_display</text>
</g>
<!-- //@nodes.11&#45;&gt;//@nodes.15 -->
<g id="edge12" class="edge">
<title>//@nodes.11&#45;&gt;//@nodes.15</title>
<path fill="none" stroke="black" d="M43.51,-143.7C43.07,-135.98 42.54,-126.71 42.05,-118.11"/>
<polygon fill="black" stroke="black" points="45.54,-117.89 41.48,-108.1 38.55,-118.29 45.54,-117.89"/>
</g>
<!-- //@nodes.1 -->
<g id="node4" class="node">
<title>//@nodes.1</title>
<polygon fill="none" stroke="black" points="425.5,-252 371.5,-252 371.5,-216 425.5,-216 425.5,-252"/>
<text text-anchor="middle" x="398.5" y="-230.3" font-family="Times New Roman,serif" font-size="14.00">CPU</text>
</g>
<!-- //@nodes.2 -->
<g id="node5" class="node">
<title>//@nodes.2</title>
<polygon fill="none" stroke="black" points="473.5,-180 409.5,-180 409.5,-144 473.5,-144 473.5,-180"/>
<text text-anchor="middle" x="441.5" y="-158.3" font-family="Times New Roman,serif" font-size="14.00">4.6 GHz</text>
</g>
<!-- //@nodes.1&#45;&gt;//@nodes.2 -->
<g id="edge3" class="edge">
<title>//@nodes.1&#45;&gt;//@nodes.2</title>
<path fill="none" stroke="black" d="M409.13,-215.7C414.13,-207.56 420.19,-197.69 425.71,-188.7"/>
<polygon fill="black" stroke="black" points="428.74,-190.46 430.99,-180.1 422.78,-186.79 428.74,-190.46"/>
</g>
<!-- //@nodes.3 -->
<g id="node6" class="node">
<title>//@nodes.3</title>
<polygon fill="none" stroke="black" points="387.5,-180 323.5,-180 323.5,-144 387.5,-144 387.5,-180"/>
<text text-anchor="middle" x="355.5" y="-158.3" font-family="Times New Roman,serif" font-size="14.00">4.9 GHz</text>
</g>
<!-- //@nodes.1&#45;&gt;//@nodes.3 -->
<g id="edge4" class="edge">
<title>//@nodes.1&#45;&gt;//@nodes.3</title>
<path fill="none" stroke="black" d="M387.87,-215.7C382.87,-207.56 376.81,-197.69 371.29,-188.7"/>
<polygon fill="black" stroke="black" points="374.22,-186.79 366.01,-180.1 368.26,-190.46 374.22,-186.79"/>
</g>
<!-- //@nodes.9 -->
<g id="node7" class="node">
<title>//@nodes.9</title>
<polygon fill="none" stroke="black" points="473.5,-108 411.5,-108 411.5,-72 473.5,-72 473.5,-108"/>
<text text-anchor="middle" x="442.5" y="-86.3" font-family="Times New Roman,serif" font-size="14.00">my_cpu</text>
</g>
<!-- //@nodes.2&#45;&gt;//@nodes.9 -->
<g id="edge5" class="edge">
<title>//@nodes.2&#45;&gt;//@nodes.9</title>
<path fill="none" stroke="black" d="M441.75,-143.7C441.86,-135.98 441.99,-126.71 442.11,-118.11"/>
<polygon fill="black" stroke="black" points="445.61,-118.15 442.26,-108.1 438.61,-118.05 445.61,-118.15"/>
</g>
<!-- //@nodes.6 -->
<g id="node8" class="node">
<title>//@nodes.6</title>
<polygon fill="none" stroke="black" points="323,-108 254,-108 254,-72 323,-72 323,-108"/>
<text text-anchor="middle" x="288.5" y="-86.3" font-family="Times New Roman,serif" font-size="14.00">my_cpu2</text>
</g>
<!-- //@nodes.3&#45;&gt;//@nodes.6 -->
<g id="edge6" class="edge">
<title>//@nodes.3&#45;&gt;//@nodes.6</title>
<path fill="none" stroke="black" d="M338.94,-143.7C330.82,-135.22 320.91,-124.86 312.03,-115.58"/>
<polygon fill="black" stroke="black" points="314.31,-112.91 304.87,-108.1 309.26,-117.75 314.31,-112.91"/>
</g>
<!-- //@nodes.7 -->
<g id="node11" class="node">
<title>//@nodes.7</title>
<ellipse fill="none" stroke="black" cx="443.5" cy="-18" rx="37.89" ry="18"/>
<text text-anchor="middle" x="443.5" y="-14.3" font-family="Times New Roman,serif" font-size="14.00">4 cores</text>
</g>
<!-- //@nodes.9&#45;&gt;//@nodes.7 -->
<g id="edge10" class="edge">
<title>//@nodes.9&#45;&gt;//@nodes.7</title>
<path fill="none" stroke="black" stroke-dasharray="5,2" d="M442.75,-71.7C442.86,-63.98 442.99,-54.71 443.11,-46.11"/>
<polygon fill="black" stroke="black" points="446.61,-46.15 443.26,-36.1 439.61,-46.05 446.61,-46.15"/>
</g>
<!-- //@nodes.8 -->
<g id="node12" class="node">
<title>//@nodes.8</title>
<ellipse fill="none" stroke="black" cx="535.5" cy="-18" rx="36.29" ry="18"/>
<text text-anchor="middle" x="535.5" y="-14.3" font-family="Times New Roman,serif" font-size="14.00">64 KiB</text>
</g>
<!-- //@nodes.9&#45;&gt;//@nodes.8 -->
<g id="edge9" class="edge">
<title>//@nodes.9&#45;&gt;//@nodes.8</title>
<path fill="none" stroke="black" stroke-dasharray="5,2" d="M465.49,-71.7C478.41,-61.97 494.61,-49.78 508.17,-39.57"/>
<polygon fill="black" stroke="black" points="510.34,-42.32 516.23,-33.51 506.13,-36.73 510.34,-42.32"/>
</g>
<!-- //@nodes.4 -->
<g id="node9" class="node">
<title>//@nodes.4</title>
<ellipse fill="none" stroke="black" cx="213.5" cy="-18" rx="37.89" ry="18"/>
<text text-anchor="middle" x="213.5" y="-14.3" font-family="Times New Roman,serif" font-size="14.00">6 cores</text>
</g>
<!-- //@nodes.6&#45;&gt;//@nodes.4 -->
<g id="edge8" class="edge">
<title>//@nodes.6&#45;&gt;//@nodes.4</title>
<path fill="none" stroke="black" stroke-dasharray="5,2" d="M269.96,-71.7C260.12,-62.51 247.91,-51.11 237.36,-41.27"/>
<polygon fill="black" stroke="black" points="239.74,-38.7 230.04,-34.44 234.96,-43.82 239.74,-38.7"/>
</g>
<!-- //@nodes.5 -->
<g id="node10" class="node">
<title>//@nodes.5</title>
<ellipse fill="none" stroke="black" cx="328.5" cy="-18" rx="59.59" ry="18"/>
<text text-anchor="middle" x="328.5" y="-14.3" font-family="Times New Roman,serif" font-size="14.00">invalid invalid</text>
</g>
<!-- //@nodes.6&#45;&gt;//@nodes.5 -->
<g id="edge7" class="edge">
<title>//@nodes.6&#45;&gt;//@nodes.5</title>
<path fill="none" stroke="black" stroke-dasharray="5,2" d="M298.39,-71.7C302.99,-63.64 308.56,-53.89 313.65,-44.98"/>
<polygon fill="black" stroke="black" points="316.8,-46.52 318.73,-36.1 310.73,-43.05 316.8,-46.52"/>
</g>
<!-- //@nodes.12 -->
<g id="node15" class="node">
<title>//@nodes.12</title>
<ellipse fill="none" stroke="black" cx="120.5" cy="-18" rx="37.09" ry="18"/>
<text text-anchor="middle" x="120.5" y="-14.3" font-family="Times New Roman,serif" font-size="14.00">FullHD</text>
</g>
<!-- //@nodes.13&#45;&gt;//@nodes.12 -->
<g id="edge13" class="edge">
<title>//@nodes.13&#45;&gt;//@nodes.12</title>
<path fill="none" stroke="black" stroke-dasharray="5,2" d="M131.79,-71.7C130.14,-63.98 128.15,-54.71 126.31,-46.11"/>
<polygon fill="black" stroke="black" points="129.68,-45.15 124.17,-36.1 122.84,-46.62 129.68,-45.15"/>
</g>
<!-- //@nodes.14 -->
<g id="node16" class="node">
<title>//@nodes.14</title>
<ellipse fill="none" stroke="black" cx="38.5" cy="-18" rx="27" ry="18"/>
<text text-anchor="middle" x="38.5" y="-14.3" font-family="Times New Roman,serif" font-size="14.00">HD</text>
</g>
<!-- //@nodes.15&#45;&gt;//@nodes.14 -->
<g id="edge14" class="edge">
<title>//@nodes.15&#45;&gt;//@nodes.14</title>
<path fill="none" stroke="black" stroke-dasharray="5,2" d="M40.01,-71.7C39.79,-63.98 39.52,-54.71 39.27,-46.11"/>
<polygon fill="black" stroke="black" points="42.77,-46 38.99,-36.1 35.78,-46.2 42.77,-46"/>
</g>
<!-- //@nodes.16 -->
<g id="node17" class="node">
<title>//@nodes.16</title>
<polygon fill="none" stroke="black" points="297,-180 202,-180 202,-144 297,-144 297,-180"/>
<text text-anchor="middle" x="249.5" y="-158.3" font-family="Times New Roman,serif" font-size="14.00">my_computer</text>
</g>
<!-- //@nodes.16&#45;&gt;//@nodes.9 -->
<g id="edge18" class="edge">
<title>//@nodes.16&#45;&gt;//@nodes.9</title>
<path fill="none" stroke="black" d="M296.71,-143.88C328.94,-132.19 371.18,-116.87 401.9,-105.73"/>
<polygon fill="black" stroke="black" points="403.23,-108.97 411.44,-102.27 400.84,-102.39 403.23,-108.97"/>
</g>
<!-- //@nodes.16&#45;&gt;//@nodes.6 -->
<g id="edge17" class="edge">
<title>//@nodes.16&#45;&gt;//@nodes.6</title>
<path fill="none" stroke="black" d="M259.14,-143.7C263.63,-135.64 269.06,-125.89 274.02,-116.98"/>
<polygon fill="black" stroke="black" points="277.16,-118.54 278.97,-108.1 271.05,-115.14 277.16,-118.54"/>
</g>
<!-- //@nodes.16&#45;&gt;//@nodes.13 -->
<g id="edge15" class="edge">
<title>//@nodes.16&#45;&gt;//@nodes.13</title>
<path fill="none" stroke="black" d="M221.61,-143.88C206.71,-134.72 188.17,-123.34 172.12,-113.48"/>
<polygon fill="black" stroke="black" points="173.85,-110.44 163.49,-108.19 170.19,-116.41 173.85,-110.44"/>
</g>
<!-- //@nodes.16&#45;&gt;//@nodes.15 -->
<g id="edge16" class="edge">
<title>//@nodes.16&#45;&gt;//@nodes.15</title>
<path fill="none" stroke="black" d="M201.82,-145.19C172.38,-135.41 133.61,-122.49 90.67,-108.05"/>
<polygon fill="black" stroke="black" points="91.75,-104.72 81.15,-104.84 89.51,-111.35 91.75,-104.72"/>
</g>
</g>
</svg>
