<?xml version="1.0" encoding="UTF-8" standalone="no"?>
<!DOCTYPE svg PUBLIC "-//W3C//DTD SVG 1.1//EN"
 "http://www.w3.org/Graphics/SVG/1.1/DTD/svg11.dtd">
<!-- Generated by graphviz version 4.0.0 (20220529.0937)
 -->
<!-- Pages: 1 -->
<svg width="311pt" height="260pt"
 viewBox="0.00 0.00 310.90 260.00" xmlns="http://www.w3.org/2000/svg" xmlns:xlink="http://www.w3.org/1999/xlink">
<g id="graph0" class="graph" transform="scale(1 1) rotate(0) translate(4 256)">
<polygon fill="white" stroke="transparent" points="-4,4 -4,-256 306.9,-256 306.9,4 -4,4"/>
<!-- //@nodes.0 -->
<g id="node1" class="node">
<title>//@nodes.0</title>
<polygon fill="none" stroke="black" points="64,-252 5,-252 5,-216 64,-216 64,-252"/>
<text text-anchor="middle" x="34.5" y="-230.3" font-family="Times New Roman,serif" font-size="14.00">Display</text>
</g>
<!-- //@nodes.6 -->
<g id="node2" class="node">
<title>//@nodes.6</title>
<polygon fill="none" stroke="black" points="69,-180 0,-180 0,-144 69,-144 69,-180"/>
<text text-anchor="middle" x="34.5" y="-158.3" font-family="Times New Roman,serif" font-size="14.00">30.0 Inch</text>
</g>
<!-- //@nodes.0&#45;&gt;//@nodes.6 -->
<g id="edge1" class="edge">
<title>//@nodes.0&#45;&gt;//@nodes.6</title>
<path fill="none" stroke="black" d="M34.5,-215.7C34.5,-207.98 34.5,-198.71 34.5,-190.11"/>
<polygon fill="black" stroke="black" points="38,-190.1 34.5,-180.1 31,-190.1 38,-190.1"/>
</g>
<!-- //@nodes.8 -->
<g id="node8" class="node">
<title>//@nodes.8</title>
<polygon fill="none" stroke="black" points="127,-108 46,-108 46,-72 127,-72 127,-108"/>
<text text-anchor="middle" x="86.5" y="-86.3" font-family="Times New Roman,serif" font-size="14.00">my_display</text>
</g>
<!-- //@nodes.6&#45;&gt;//@nodes.8 -->
<g id="edge6" class="edge">
<title>//@nodes.6&#45;&gt;//@nodes.8</title>
<path fill="none" stroke="black" d="M47.35,-143.7C53.53,-135.39 61.04,-125.28 67.82,-116.14"/>
<polygon fill="black" stroke="black" points="70.64,-118.22 73.79,-108.1 65.02,-114.04 70.64,-118.22"/>
</g>
<!-- //@nodes.1 -->
<g id="node3" class="node">
<title>//@nodes.1</title>
<polygon fill="none" stroke="black" points="259.5,-252 205.5,-252 205.5,-216 259.5,-216 259.5,-252"/>
<text text-anchor="middle" x="232.5" y="-230.3" font-family="Times New Roman,serif" font-size="14.00">CPU</text>
</g>
<!-- //@nodes.2 -->
<g id="node4" class="node">
<title>//@nodes.2</title>
<polygon fill="none" stroke="black" points="264.5,-180 200.5,-180 200.5,-144 264.5,-144 264.5,-180"/>
<text text-anchor="middle" x="232.5" y="-158.3" font-family="Times New Roman,serif" font-size="14.00">2.0 GHz</text>
</g>
<!-- //@nodes.1&#45;&gt;//@nodes.2 -->
<g id="edge2" class="edge">
<title>//@nodes.1&#45;&gt;//@nodes.2</title>
<path fill="none" stroke="black" d="M232.5,-215.7C232.5,-207.98 232.5,-198.71 232.5,-190.11"/>
<polygon fill="black" stroke="black" points="236,-190.1 232.5,-180.1 229,-190.1 236,-190.1"/>
</g>
<!-- //@nodes.5 -->
<g id="node5" class="node">
<title>//@nodes.5</title>
<polygon fill="none" stroke="black" points="217,-108 148,-108 148,-72 217,-72 217,-108"/>
<text text-anchor="middle" x="182.5" y="-86.3" font-family="Times New Roman,serif" font-size="14.00">my_CPU</text>
</g>
<!-- //@nodes.2&#45;&gt;//@nodes.5 -->
<g id="edge3" class="edge">
<title>//@nodes.2&#45;&gt;//@nodes.5</title>
<path fill="none" stroke="black" d="M220.14,-143.7C214.27,-135.47 207.13,-125.48 200.66,-116.42"/>
<polygon fill="black" stroke="black" points="203.38,-114.21 194.72,-108.1 197.68,-118.28 203.38,-114.21"/>
</g>
<!-- //@nodes.3 -->
<g id="node6" class="node">
<title>//@nodes.3</title>
<ellipse fill="none" stroke="black" cx="174.5" cy="-18" rx="37.89" ry="18"/>
<text text-anchor="middle" x="174.5" y="-14.3" font-family="Times New Roman,serif" font-size="14.00">4 cores</text>
</g>
<!-- //@nodes.5&#45;&gt;//@nodes.3 -->
<g id="edge5" class="edge">
<title>//@nodes.5&#45;&gt;//@nodes.3</title>
<path fill="none" stroke="black" stroke-dasharray="5,2" d="M180.52,-71.7C179.64,-63.98 178.58,-54.71 177.6,-46.11"/>
<polygon fill="black" stroke="black" points="181.07,-45.64 176.45,-36.1 174.11,-46.44 181.07,-45.64"/>
</g>
<!-- //@nodes.4 -->
<g id="node7" class="node">
<title>//@nodes.4</title>
<ellipse fill="none" stroke="black" cx="266.5" cy="-18" rx="36.29" ry="18"/>
<text text-anchor="middle" x="266.5" y="-14.3" font-family="Times New Roman,serif" font-size="14.00">64 KiB</text>
</g>
<!-- //@nodes.5&#45;&gt;//@nodes.4 -->
<g id="edge4" class="edge">
<title>//@nodes.5&#45;&gt;//@nodes.4</title>
<path fill="none" stroke="black" stroke-dasharray="5,2" d="M203.26,-71.7C214.63,-62.22 228.82,-50.4 240.87,-40.36"/>
<polygon fill="black" stroke="black" points="243.37,-42.83 248.81,-33.74 238.89,-37.45 243.37,-42.83"/>
</g>
<!-- //@nodes.7 -->
<g id="node9" class="node">
<title>//@nodes.7</title>
<ellipse fill="none" stroke="black" cx="86.5" cy="-18" rx="27" ry="18"/>
<text text-anchor="middle" x="86.5" y="-14.3" font-family="Times New Roman,serif" font-size="14.00">5K</text>
</g>
<!-- //@nodes.8&#45;&gt;//@nodes.7 -->
<g id="edge7" class="edge">
<title>//@nodes.8&#45;&gt;//@nodes.7</title>
<path fill="none" stroke="black" stroke-dasharray="5,2" d="M86.5,-71.7C86.5,-63.98 86.5,-54.71 86.5,-46.11"/>
<polygon fill="black" stroke="black" points="90,-46.1 86.5,-36.1 83,-46.1 90,-46.1"/>
</g>
<!-- //@nodes.9 -->
<g id="node10" class="node">
<title>//@nodes.9</title>
<polygon fill="none" stroke="black" points="182,-180 87,-180 87,-144 182,-144 182,-180"/>
<text text-anchor="middle" x="134.5" y="-158.3" font-family="Times New Roman,serif" font-size="14.00">my_computer</text>
</g>
<!-- //@nodes.9&#45;&gt;//@nodes.5 -->
<g id="edge9" class="edge">
<title>//@nodes.9&#45;&gt;//@nodes.5</title>
<path fill="none" stroke="black" d="M146.37,-143.7C152,-135.47 158.85,-125.48 165.07,-116.42"/>
<polygon fill="black" stroke="black" points="168,-118.33 170.77,-108.1 162.23,-114.37 168,-118.33"/>
</g>
<!-- //@nodes.9&#45;&gt;//@nodes.8 -->
<g id="edge8" class="edge">
<title>//@nodes.9&#45;&gt;//@nodes.8</title>
<path fill="none" stroke="black" d="M122.63,-143.7C117,-135.47 110.15,-125.48 103.93,-116.42"/>
<polygon fill="black" stroke="black" points="106.77,-114.37 98.23,-108.1 101,-118.33 106.77,-114.37"/>
</g>
</g>
</svg>
